<svg xmlns="http://www.w3.org/2000/svg" viewBox="0 0 202.05 230">
    <defs>
        <style>.a{fill:#d7d0d6;}.b{fill:#fac56e;}.c{fill:#f9b343;}.d{fill:#fddeb0;}.e{fill:#fed89b;}.f{fill:#fcce81;}.g{fill:#f7a520;}</style>
    </defs>
    <path class="a" d="M23.21,156a3.38,3.38,0,0,1-1.76-6.27l8.14-4.92,8.79-25.66a3.39,3.39,0,0,1,2.17-2.13l13.93-4.42.23-.07,21.08-5.06a3.38,3.38,0,1,1,1.58,6.58l-21,5L44.22,123l-8.63,25.21a3.36,3.36,0,0,1-1.45,1.8L25,155.54A3.26,3.26,0,0,1,23.21,156Z" transform="translate(-19.82 -10.01)"/>
    <path class="a" d="M33.94,240a3.29,3.29,0,0,1-1.51-.36,3.37,3.37,0,0,1-1.51-4.53l9.19-18.39V192.91a3.38,3.38,0,0,1,1.54-2.84L54.11,182l.27-.16,21.81-11.41a3.38,3.38,0,0,1,3.13,6L57.66,187.75l-10.78,7v22.78a3.47,3.47,0,0,1-.36,1.52L37,238.14A3.39,3.39,0,0,1,33.94,240Z" transform="translate(-19.82 -10.01)"/>
    <path class="a" d="M218.49,156a3.34,3.34,0,0,1-1.74-.48L207.56,150a3.37,3.37,0,0,1-1.45-1.79L197.48,123l-12.2-3.88-20.51-5a3.38,3.38,0,1,1,1.61-6.56l20.62,5,.22.07,13.93,4.42a3.39,3.39,0,0,1,2.17,2.13l8.79,25.66,8.14,4.92a3.38,3.38,0,0,1-1.76,6.27Z" transform="translate(-19.82 -10.01)"/>
    <path class="a" d="M207.76,240a3.39,3.39,0,0,1-3-1.87L195.18,219a3.47,3.47,0,0,1-.36-1.52V194.74l-10.69-6.94-28.08-12.47a3.38,3.38,0,1,1,2.75-6.18l28.32,12.58a4.31,4.31,0,0,1,.47.26l12.46,8.08a3.38,3.38,0,0,1,1.54,2.84v23.82l9.19,18.39a3.37,3.37,0,0,1-1.51,4.53,3.29,3.29,0,0,1-1.51.36Z" transform="translate(-19.82 -10.01)"/>
    <path class="a" d="M97.86,74.44a3.36,3.36,0,0,1-2.53-1.14l-8.79-9.9L72.34,47.93l-9.34,5a3.38,3.38,0,0,1-3.18-6l9.64-5.14a6.32,6.32,0,0,1,7.63,1.31L91.55,58.85l0,0,8.8,9.93a3.37,3.37,0,0,1-2.52,5.62Z" transform="translate(-19.82 -10.01)"/>
    <path class="a" d="M142.6,74.44a3.38,3.38,0,0,1-2.38-5.79l10-9.86,14.4-15.69a6.33,6.33,0,0,1,7.63-1.3l9.64,5.14a3.38,3.38,0,0,1-3.18,6l-9.34-5L155.14,63.42l-.12.12L145,73.46a3.36,3.36,0,0,1-2.37,1Z" transform="translate(-19.82 -10.01)"/>
    <path class="a" d="M116.33,41.06a3.36,3.36,0,0,1-2.17-.79L106,33.42,85.78,16.84a.27.27,0,0,0-.3,0L77,21.47a7.06,7.06,0,0,1-5.4.57l-4.36-1.3a3.38,3.38,0,1,1,1.94-6.48l4.36,1.31a.27.27,0,0,0,.2,0l8.49-4.66a7,7,0,0,1,7.84.73l20.22,16.6,8.21,6.87a3.38,3.38,0,0,1-2.17,6Z" transform="translate(-19.82 -10.01)"/>
    <path class="a" d="M124.31,41.06a3.38,3.38,0,0,1-2-6.1l9.19-6.8,20.15-16.54a7,7,0,0,1,7.84-.73L168,15.55a.31.31,0,0,0,.21,0l4.36-1.31a3.38,3.38,0,0,1,1.94,6.48L170.1,22a7.06,7.06,0,0,1-5.4-.57l-8.48-4.66a.27.27,0,0,0-.3,0L135.7,33.44l-.13.1-9.25,6.86a3.43,3.43,0,0,1-2,.66Z" transform="translate(-19.82 -10.01)"/>
    <path class="b" d="M125.08,27.76l-8,2.49L107.76,38l-3.27,8.08.29,15.07h34.67V46.71A19.68,19.68,0,0,0,125.08,27.76Z" transform="translate(-19.82 -10.01)"/>
    <path class="c" d="M112.67,46.71a19.67,19.67,0,0,1,13.39-18.65,19.69,19.69,0,0,0-26,18.65V61.13h12.58V46.71Z" transform="translate(-19.82 -10.01)"/>
    <path class="d" d="M137.2,63.94H106.64L97.3,69.05V210.89l3.35,7.32,8.86,8.51a16.84,16.84,0,0,0,22.72.53l10.37-9,10-23L153.48,89V74Z" transform="translate(-19.82 -10.01)"/>
    <path class="e" d="M137.2,63.94H106.64L88.22,74V191l12.43,27.2,5.76,5.53a22.37,22.37,0,0,0,13.86-20.67V123.59a43.49,43.49,0,0,0-12.8-30.92,46.38,46.38,0,0,0-3.56-3.19A2,2,0,0,1,105.49,86a96.5,96.5,0,0,0,15.29,1.24,98.39,98.39,0,0,0,32.7-5.73V74Z" transform="translate(-19.82 -10.01)"/>
    <path class="f" d="M88.22,189.9V191l8.46,18.51,49.61.25,6.36-14.51,0-5.36Z" transform="translate(-19.82 -10.01)"/>
    <path class="b" d="M119.28,209.64a22.33,22.33,0,0,0,1-6.57V189.9h-32V191l8.46,18.51Z" transform="translate(-19.82 -10.01)"/>
    <path class="f" d="M102.37,97.77a36.49,36.49,0,0,0-15.14-9.09l-2.88.77H75L62.73,97.14l-3.57,70,4.05,25.46S73.91,209,75,209.45,83.22,213,83.22,213s.17,1.15.37,2.69a42.17,42.17,0,0,0,14.32,2.48,15.15,15.15,0,0,0,15.15-15.14V123.58a36.43,36.43,0,0,0-10.69-25.81Z" transform="translate(-19.82 -10.01)"/>
    <path class="c" d="M109.17,154.07a93.77,93.77,0,0,1-48.33,32.49l12.88,22.3A93.72,93.72,0,0,0,113.06,182V149.09Z" transform="translate(-19.82 -10.01)"/>
    <path class="f" d="M186.2,108.15v67.66a42.4,42.4,0,0,1-42.41,42.4,15.15,15.15,0,0,1-15.15-15.14V123.59a36.48,36.48,0,0,1,36.5-36.5,21.06,21.06,0,0,1,21.06,21.06Z" transform="translate(-19.82 -10.01)"/>
    <path class="c" d="M184.56,187.53a42.44,42.44,0,0,1-14.95,21.92,93.93,93.93,0,0,1-41-27.5V149.09l3.89,5a93.83,93.83,0,0,0,52,33.46Z" transform="translate(-19.82 -10.01)"/><circle class="c" cx="137.58" cy="118.83" r="14.8"/>
    <path class="d" d="M144.23,52.28l-7.49-1.6-16.12-1.15-17.39,4.14-7.7,13.67-.94,8.8c20.29,6,40.51,5.1,60.64-3a25.32,25.32,0,0,0-11-20.89Z" transform="translate(-19.82 -10.01)"/>
    <path class="e" d="M145.81,53.46a25.22,25.22,0,0,0-15.92-5.63H111.36A25.34,25.34,0,0,0,86,73.17c2.86,1.13,5.72,2.11,8.57,3l1.67.48c1.31.36,2.62.71,3.93,1a25.35,25.35,0,0,1,25.15-22.3h18.53a26,26,0,0,1,4.36.38C147.47,54.91,145.8,53.45,145.81,53.46Z" transform="translate(-19.82 -10.01)"/>
    <path class="b" d="M74.65,181.14V113.49A21.05,21.05,0,0,1,95.57,92.43a36.06,36.06,0,0,0-8.34-3.75h0a36.35,36.35,0,0,0-10.65-1.59A21.06,21.06,0,0,0,55.5,108.15v67.66a42.42,42.42,0,0,0,34.42,41.65l4.9.63c.52,0,1.05.07,1.58.09a42.38,42.38,0,0,1-21.75-37Z" transform="translate(-19.82 -10.01)"/>
    <path class="g" d="M82.23,205.34a42.11,42.11,0,0,1-7.58-23.89q-3.51,1.62-7.15,3c-.46.17-7.72,2.5-10.36,3.13a42.44,42.44,0,0,0,15,21.92q2.72-.93,5.37-2s3.2-1.36,4.77-2.1Z" transform="translate(-19.82 -10.01)"/>
    <circle class="c" cx="64.48" cy="118.83" r="14.8"/>
</svg>