
<svg xmlns="http://www.w3.org/2000/svg" viewBox="0 0 161.97 230">
    <defs>
        <style>.a{fill:#4c404f;}.b{fill:#e6656e;}.c{fill:#f5dcb4;}.d{fill:#5e5461;}.e{fill:#eac9a0;}
        </style>
    </defs>
    <path class="a" d="M49.66,71.07V87.64l14.73-11V54.5L54.08,62.24A11,11,0,0,0,49.66,71.07Z" transform="translate(-45.98 -10.33)"/>
    <path class="b" d="M68.07,47.82,53.34,58.19A18.48,18.48,0,0,0,46,72.91V91.32a3.69,3.69,0,0,0,7.37,0V72.91a11,11,0,0,1,4.32-8.77l10.4-7.32v-9Z" transform="translate(-45.98 -10.33)"/>
    <path class="c" d="M204.27,54.5h0a3.68,3.68,0,0,1-3.68-3.68V43.46H208v7.36A3.66,3.66,0,0,1,204.27,54.5Z" transform="translate(-45.98 -10.33)"/>
    <path class="d" d="M200.59,32.42h-8a7.38,7.38,0,0,1-5.21-2.16l-4.57-4.57a14.7,14.7,0,0,0-10.41-4.32H152.74L145.37,14H127L138.65,25.7a1.78,1.78,0,0,1-1.26,3H101.2A40.49,40.49,0,0,0,60.71,69.23h0a40.49,40.49,0,0,0,40.49,40.49h36c9.61,0,18.2,7,19.11,16.6A18.4,18.4,0,0,1,138,146.53H112.24a33.14,33.14,0,0,0-33.13,33.14V212.8h7.37V187a25.76,25.76,0,0,1,25.76-25.77h24.51c19.61,0,36.73-14.8,38-34.36A36.82,36.82,0,0,0,138,87.64H101.83c-7.69,0-14.56-5.63-15.29-13.28A14.73,14.73,0,0,1,101.2,58.19h58.9l3.68,3.68h11V54.5a7.37,7.37,0,0,1,7.37-7.36h22.08A3.69,3.69,0,0,0,208,43.46V39.78A7.36,7.36,0,0,0,200.59,32.42Z" transform="translate(-45.98 -10.33)"/>
    <path class="e" d="M86.61,184.39a25.64,25.64,0,0,0-.13,2.64C86.48,186.14,86.54,185.26,86.61,184.39Z" transform="translate(-45.98 -10.33)"/>
    <path class="e" d="M138,87.64H101.83c-7.69,0-14.56-5.63-15.29-13.28A14.73,14.73,0,0,1,101.2,58.19h30.86a3.69,3.69,0,0,0,3.29-5.33h0a3.68,3.68,0,0,0-3.29-2H101.2a22.1,22.1,0,0,0-22,24.24C80.28,86.24,90.22,95,101.83,95H137a30.78,30.78,0,0,1,21.36,8.14,29.29,29.29,0,0,1,9.05,23.28c-1,15.41-14.46,27.48-30.65,27.48H119.61a33.15,33.15,0,0,0-33,30.49,25.77,25.77,0,0,1,25.63-23.13h24.51c19.61,0,36.73-14.8,38-34.36A36.82,36.82,0,0,0,138,87.64Z" transform="translate(-45.98 -10.33)"/>
    <path class="a" d="M200.59,65.55H168.68a22,22,0,0,1-17.24-8.29l-3.68-4.59a14.65,14.65,0,0,0-11.5-5.53h-5.61a3.68,3.68,0,0,1,0-7.36h5.61a22,22,0,0,1,17.25,8.29l3.67,4.59a14.69,14.69,0,0,0,11.5,5.53h31.91a3.68,3.68,0,1,1,0,7.36Z" transform="translate(-45.98 -10.33)"/>
    <path class="a" d="M103.36,229.25a22,22,0,0,0-6.71-9.05l-7.54-6.31a7.36,7.36,0,0,1-2.63-5.64V190.71A3.69,3.69,0,0,0,82.79,187h0a3.68,3.68,0,0,0-3.68,3.68v17.54a7.36,7.36,0,0,1-2.63,5.64l-7.54,6.31a22,22,0,0,0-6.71,9.05L59,237.3a2.21,2.21,0,0,0,2.92,2.85l14.17-6.08a11,11,0,0,0,5-4.33,2,2,0,0,1,3.31,0,11,11,0,0,0,5,4.33l14.17,6.08a2.21,2.21,0,0,0,2.92-2.85Z" transform="translate(-45.98 -10.33)"/>
    <circle class="c" cx="128.84" cy="25.77" r="3.68"/>
    <path class="b" d="M160.1,32.42a3.67,3.67,0,0,1-2.6-1.08L147.09,20.93a11,11,0,0,0-7.82-3.24H119.61a3.68,3.68,0,1,1,0-7.36h19.66a18.26,18.26,0,0,1,13,5.39L162.7,26.13a3.69,3.69,0,0,1-2.6,6.29Z" transform="translate(-45.98 -10.33)"/>
    <path class="a" d="M95.55,30.45a18.38,18.38,0,0,0-13-5.39H68.07l9.33,9.33a18.44,18.44,0,0,0,13,5.39h14.46Z" transform="translate(-45.98 -10.33)"/>
    <path class="b" d="M104.88,43.46a3.67,3.67,0,0,1-2.6-1.08L93,33.05a14.67,14.67,0,0,0-10.42-4.31H60.71a3.69,3.69,0,0,1,0-7.37H82.53a22,22,0,0,1,15.62,6.47l9.33,9.34a3.68,3.68,0,0,1-2.6,6.28Z" transform="translate(-45.98 -10.33)"/>
</svg>