
<svg xmlns="http://www.w3.org/2000/svg" viewBox="0 0 148.89 231">
    <defs>
        <style>.a{fill:#fbed62;}.b{fill:#ffd160;}
        </style>
    </defs>
    <path class="a" d="M193.18,105.2h-56l48.35-85.08A6.76,6.76,0,0,0,179.64,10H98.43A6.76,6.76,0,0,0,92,14.63L51.41,136.89a6.76,6.76,0,0,0,6.41,8.91h57.42L78.68,231.57A6.76,6.76,0,0,0,90,238.73L198.23,116.46a6.76,6.76,0,0,0-5-11.26Z" transform="translate(-51.06 -10)"/>
    <path class="b" d="M192.94,105.2H137.17l48.35-85.08A6.76,6.76,0,0,0,179.64,10h-30l-38.2,106,63.83-.24L87.68,234.17c-6.52,9,0,7.07,2.27,4.56L198.23,116.46a6.76,6.76,0,0,0,.29-8.64A7,7,0,0,0,192.94,105.2Z" transform="translate(-51.06 -10)"/>
</svg>