
<svg xmlns="http://www.w3.org/2000/svg" xmlns:xlink="http://www.w3.org/1999/xlink" viewBox="0 0 229.84 230">
    <defs>
        <style>.a{fill:#f9cddb;}.b{fill:#f5b4c9;}.c{fill:#fce6ec;}.d{fill:#f29bb7;}.e{fill:#f18fae;}.f{fill:url(#a);}
        </style>
        <linearGradient id="a" x1="16.24" y1="186.29" x2="50.07" y2="220.12" gradientTransform="matrix(2.67, 0, 0, -2.67, -1.67, 670.33)" gradientUnits="userSpaceOnUse">
            <stop offset="0" stop-color="#ef83a5"/>
            <stop offset="1" stop-color="#cdb2d6"/>
        </linearGradient>
    </defs>
    <path class="a" d="M160.71,55.91,122.37,16.37a9.57,9.57,0,0,0-6.88-2.91H58a9.57,9.57,0,0,0-6.77,2.81L12.88,54.6a9.62,9.62,0,0,0-2.8,6.78V195.55a9.6,9.6,0,0,0,2.8,6.77l38.34,38.34a9.6,9.6,0,0,0,6.77,2.8h57.5a9.61,9.61,0,0,0,6.78-2.8l38.33-38.34a9.57,9.57,0,0,0,2.81-6.77v-133A9.58,9.58,0,0,0,160.71,55.91Z" transform="translate(-10.08 -13.46)"/>
    <path class="b" d="M51.22,73.77,70.38,54.6a9.85,9.85,0,0,1,2.5-1.79L53.71,14.48a9.56,9.56,0,0,0-2.49,1.79L12.88,54.6a9.41,9.41,0,0,0-1.78,2.5L49.43,76.26A9.56,9.56,0,0,1,51.22,73.77Z" transform="translate(-10.08 -13.46)"/>
    <path class="a" d="M77.16,51.8H96.33a9.65,9.65,0,0,1,4.28,1l19.17-38.33a9.67,9.67,0,0,0-4.29-1H58a9.53,9.53,0,0,0-4.28,1L72.88,52.81A9.62,9.62,0,0,1,77.16,51.8Z" transform="translate(-10.08 -13.46)"/>
    <path class="c" d="M103.1,54.6l19.17,19.17a9.56,9.56,0,0,1,1.79,2.49l37.81-18.9a9.58,9.58,0,0,0-1.16-1.45L122.37,16.37a9.64,9.64,0,0,0-2.59-1.89L100.61,52.82a9.52,9.52,0,0,1,2.49,1.78Z" transform="translate(-10.08 -13.46)"/>
    <path class="b" d="M122.27,183.16,103.1,202.32a9.56,9.56,0,0,1-2.49,1.79l19.17,38.33a9.52,9.52,0,0,0,2.49-1.78l38.33-38.34a9.56,9.56,0,0,0,1.79-2.49l-38.33-19.17A9.61,9.61,0,0,1,122.27,183.16Z" transform="translate(-10.08 -13.46)"/>
    <path class="d" d="M96.33,205.13H77.16a9.5,9.5,0,0,1-4.28-1L53.71,242.44a9.53,9.53,0,0,0,4.28,1h57.5a9.54,9.54,0,0,0,4.29-1l-19.17-38.33A9.53,9.53,0,0,1,96.33,205.13Z" transform="translate(-10.08 -13.46)"/>
    <path class="a" d="M163.41,62.58a9.63,9.63,0,0,0-1.54-5.22l-37.81,18.9a9.54,9.54,0,0,1,1,4.29v95.83a9.5,9.5,0,0,1-1,4.28l38.33,19.17a9.53,9.53,0,0,0,1-4.28Z" transform="translate(-10.08 -13.46)"/>
    <path class="e" d="M70.38,202.32,51.22,183.16a9.61,9.61,0,0,1-1.79-2.5L11.1,199.83a9.52,9.52,0,0,0,1.78,2.49l38.34,38.34a9.52,9.52,0,0,0,2.49,1.78l19.17-38.33A9.61,9.61,0,0,1,70.38,202.32Z" transform="translate(-10.08 -13.46)"/>
    <path class="d" d="M48.41,176.38V80.55a9.54,9.54,0,0,1,1-4.29L11.1,57.1a9.5,9.5,0,0,0-1,4.28V195.55a9.53,9.53,0,0,0,1,4.28l38.33-19.17A9.5,9.5,0,0,1,48.41,176.38Z" transform="translate(-10.08 -13.46)"/>
    <path class="f" d="M122.27,73.77,103.1,54.6a9.54,9.54,0,0,0-6.77-2.8H77.16a9.58,9.58,0,0,0-6.78,2.8L51.22,73.77a9.57,9.57,0,0,0-2.81,6.78v95.83a9.59,9.59,0,0,0,2.81,6.78l19.16,19.16a9.59,9.59,0,0,0,6.78,2.81H96.33a9.55,9.55,0,0,0,6.77-2.81l19.17-19.16a9.59,9.59,0,0,0,2.81-6.78V80.55A9.57,9.57,0,0,0,122.27,73.77Z" transform="translate(-10.08 -13.46)"/>
    <path class="a" d="M211.17,35.75a2.39,2.39,0,0,0-2.39-2.39A17.07,17.07,0,0,1,191.85,16.2a2.4,2.4,0,1,0-4.79,0,17.07,17.07,0,0,1-16.93,17.16,2.4,2.4,0,1,0,0,4.79,17.07,17.07,0,0,1,16.93,17.16,2.4,2.4,0,1,0,4.79,0,17.06,17.06,0,0,1,16.93-17.16A2.39,2.39,0,0,0,211.17,35.75Z" transform="translate(-10.08 -13.46)"/>
    <path class="c" d="M239.92,71.69a2.39,2.39,0,0,0-2.39-2.39A17.08,17.08,0,0,1,220.6,52.13a2.4,2.4,0,0,0-4.79,0A17.08,17.08,0,0,1,198.88,69.3a2.4,2.4,0,1,0,0,4.79,17.06,17.06,0,0,1,16.93,17.16,2.4,2.4,0,0,0,4.79,0,17.06,17.06,0,0,1,16.93-17.16,2.4,2.4,0,0,0,2.39-2.4Z" transform="translate(-10.08 -13.46)"/>
    <path class="a" d="M211.17,112.42a2.4,2.4,0,0,0-2.39-2.4,17.06,17.06,0,0,1-16.93-17.16,2.4,2.4,0,0,0-4.79,0A17.06,17.06,0,0,1,170.13,110a2.4,2.4,0,0,0,0,4.8A17.06,17.06,0,0,1,187.06,132a2.4,2.4,0,0,0,4.79,0,17.06,17.06,0,0,1,16.93-17.16,2.4,2.4,0,0,0,2.39-2.4Z" transform="translate(-10.08 -13.46)"/>
</svg>