
<svg xmlns="http://www.w3.org/2000/svg" viewBox="0 0 170.56 230">
    <defs>
        <style>.a{fill:#c03b2b;}.b{fill:#fff;}.c{fill:#e74c3d;}.d{fill:#f9eab0;}
        </style>
    </defs>
    <path class="a" d="M179.78,64.16c15.82-8.17,32.75-9,32.75,21.69C212.53,141.37,157,185,157,185l-43.62,7.94L65.81,185c-15.9-29-19.35-72.2-19.9-97.74Z" transform="translate(-41.97 -10.5)"/>
    <path class="b" d="M120.31,155.24l15.19-10.63a4,4,0,1,0-4.55-6.49L113.4,150.4,95.84,138.11a4,4,0,0,0-4.54,6.5l15.18,10.63L91.3,165.88a4,4,0,1,0,4.54,6.49l17.56-12.28L131,172.38a4,4,0,1,0,4.55-6.5Z" transform="translate(-41.97 -10.5)"/>
    <path class="c" d="M157,185v47.59a8,8,0,0,1-7.93,7.93H73.74a8,8,0,0,1-7.93-7.93V185Z" transform="translate(-41.97 -10.5)"/>
    <path class="d" d="M97.54,200.85H157v23.79H97.54a4,4,0,0,1-4-4V204.81A4,4,0,0,1,97.54,200.85Z" transform="translate(-41.97 -10.5)"/>
    <path class="c" d="M179.78,64.16a83.54,83.54,0,0,1-3,17.76c-18.32,67.65-110.67,52.27-130.85,5.32v-.08A45.82,45.82,0,0,1,42,70c-2.18-63.41,69.16-59.48,69.16-59.48S183,7.26,179.78,64.16Z" transform="translate(-41.97 -10.5)"/>
    <path class="b" d="M101.57,26.58A4,4,0,0,0,100,24a3.94,3.94,0,0,0-2.93-.76C81,25.44,60.59,33.2,55.21,57.5a4,4,0,0,0,3,4.73,3.54,3.54,0,0,0,.86.09A4,4,0,0,0,63,59.21c4.39-19.85,21.59-26.27,35.24-28.15a4,4,0,0,0,3.38-4.48Z" transform="translate(-41.97 -10.5)"/>
</svg>