
<svg xmlns="http://www.w3.org/2000/svg" viewBox="0 0 173.17 230">
    <defs>
        <style>.a{fill:#ee715c;}.b{fill:#ffd25f;}
        </style>
    </defs>
    <path class="a" d="M73.15,219.72c-10.56-12-21.12-24.48-27.84-39.35A89.29,89.29,0,0,1,40,129a110.57,110.57,0,0,1,22.07-47.5,45.77,45.77,0,0,0,11.52,33.59c-4.8-23,2.87-48,18.23-66.22S128.33,18.66,150.4,10.5c-11,11.52-12.47,29.75-8.16,45.11s13.44,28.79,21.6,42.7,15.83,28.31,16.31,44.15c4.32-8.16,9.12-16.32,12-25.43s4.32-18.72,1.92-27.83a71.31,71.31,0,0,1,15.83,34.54c2.4,13.44,1.92,27.36.48,40.79-1.92,14.88-5.75,30.23-13.91,42.71-9.6,14.87-24.95,25.43-41.75,31.19C125,243.71,95.7,239.39,73.15,219.72Z" transform="translate(-38.42 -10.5)"/>
    <path class="b" d="M109.61,237.47c39.35,15.36,78.22-31.19,56.63-67.18,0-.48-.48-.48-.48-1,1.92,19.68-2.88,34.07-12,42.23,4.8-11.52,1.44-24.95-4.32-36.47-5.76-11-13.91-21.11-20.15-31.67-6.24-11-11-23.51-8.16-36a63.26,63.26,0,0,0-23,35.51,64.23,64.23,0,0,0,4.8,42.23c-7.2-5.28-12.48-13.92-13-23-7.68,9.12-12.48,21.12-12,33.11C77.94,214,92.82,230.75,109.61,237.47Z" transform="translate(-38.42 -10.5)"/>
</svg>