
<svg xmlns="http://www.w3.org/2000/svg" viewBox="0 0 222.01 230">
    <defs>
        <style>.a{fill:#32a9cc;}.b{fill:#68bacd;}.c{fill:#557680;}
        </style>
    </defs>
    <path class="a" d="M186.6,68.77a101.38,101.38,0,0,1,2.66-54C200.9,31,204.17,52.85,205,67.81V78.16l-19.51,23.21Z" transform="translate(-13.99 -10.66)"/>
    <path class="b" d="M205,115.56h0a80.16,80.16,0,0,0,23.14-7.32S212.63,143.29,185.36,155A182.37,182.37,0,0,1,150,165.8h-.11a225.62,225.62,0,0,1-35.87,4.48l71.62-52.81Z" transform="translate(-13.99 -10.66)"/>
    <path class="b" d="M121.21,187.23h.08c9.46,1.75,20.72,4,32.91,6.7,0,0-23.37,15.58-70.11,11.68,0,0,7.79,11.68,39,11.68,0,0-41.6,13.87-72.44-7.43L90.79,179.6Z" transform="translate(-13.99 -10.66)"/>
    <path class="b" d="M76,175.17a147.25,147.25,0,0,1,3.36-31.53v0a288.24,288.24,0,0,1,12.46-39.22,0,0,0,0,1,0,0l0,0c-48.1,28.86-48.74,73.15-47.42,87.09Z" transform="translate(-13.99 -10.66)"/>
    <path class="b" d="M115,153.53c1.87-13,10.42-54.76,39.24-80.35,0,0-10.63,21.27,1.91,53.64l-16.94,15.8Z" transform="translate(-13.99 -10.66)"/>
    <path class="a" d="M116.26,153.39c.39-22.71,2.89-52.94,2.89-52.94A113.41,113.41,0,0,0,79.38,143.6v0L68,179.92Z" transform="translate(-13.99 -10.66)"/>
    <path class="b" d="M187.66,97.37v0c3.5-20.17,1.13-34.08-3.16-43.66,0,0,0,0,0,0a35.09,35.09,0,0,0-18.61-19.4c7.79,11.69,3.89,27.27,0,50.64a44.87,44.87,0,0,0,4.59,30.65l10.35-5.09Z" transform="translate(-13.99 -10.66)"/>
    <path class="a" d="M181.66,126.54a87.18,87.18,0,0,0,23.37-11h0A70.06,70.06,0,0,0,236,61.5c-14.3,20-26.49,27.46-32,30Z" transform="translate(-13.99 -10.66)"/>
    <path class="a" d="M114.6,168l35.45-2.16c11.64-.58,25.43-1.52,39.22-3A118.18,118.18,0,0,1,162,182.24a314.56,314.56,0,0,1-40.7,5h-.08a98.66,98.66,0,0,1-30.92-2.38Z" transform="translate(-13.99 -10.66)"/>
    <path class="a" d="M60.72,232.87A3.89,3.89,0,0,1,57,230.21C54.64,223.1,46.13,216.5,39.55,213a4,4,0,0,1-2.13-4.13,3.9,3.9,0,0,1,5.78-2.73c4.13,2.2,17.32,10,21.22,21.62a3.89,3.89,0,0,1-3.7,5.11Z" transform="translate(-13.99 -10.66)"/>
    <path class="a" d="M45.14,232.87a3.87,3.87,0,0,1-3.5-2.15,54.75,54.75,0,0,0-4.9-8.07A3.89,3.89,0,0,1,43,218a64,64,0,0,1,5.65,9.22,3.89,3.89,0,0,1-3.51,5.63Z" transform="translate(-13.99 -10.66)"/>
    <path class="a" d="M38.69,200.67a4.64,4.64,0,0,1-1.29-3c-.36-10.43-3.18-23.2-10-27.71a3.9,3.9,0,0,1,4.31-6.49c11.35,7.53,13.19,26.22,13.47,33.93l-3.9.43Z" transform="translate(-13.99 -10.66)"/>
    <path class="a" d="M33,201.36a3.89,3.89,0,0,1-3.84-3.27A24.35,24.35,0,0,0,22.92,185a3.89,3.89,0,0,1,5.5-5.5,31.52,31.52,0,0,1,8.42,17.36,3.91,3.91,0,0,1-3.23,4.48A3.22,3.22,0,0,1,33,201.36Z" transform="translate(-13.99 -10.66)"/>
    <path class="a" d="M27.47,206.23a3.88,3.88,0,0,1-3.18-1.62,23.53,23.53,0,0,0-8.18-7.21,3.89,3.89,0,0,1,3.51-7,31.4,31.4,0,0,1,11,9.62,3.89,3.89,0,0,1-3.16,6.16Z" transform="translate(-13.99 -10.66)"/>
    <path class="a" d="M204.12,79.39a3.89,3.89,0,0,1-2.22-7.1c3.86-2.67,23.26-18,26.32-57.83a3.9,3.9,0,0,1,7.78.59c-3.25,42.3-23.53,59.41-29.66,63.65a3.91,3.91,0,0,1-2.22.69Z" transform="translate(-13.99 -10.66)"/>
    <path class="c" d="M212.1,12.81a3.9,3.9,0,1,0-6.73,3.9c3.63,6.23,4,17.8,3.68,25v.05c0,.43,0,.82-.06,1.21-.57,8.25-6.44,55.45-66.47,92.55-72.74,45-105.17,50.64-124.64,77.9a30.72,30.72,0,0,0,19.47,27.26s-11.68-15.58,19.48-35S138.62,155,165.89,139.4c24.74-14.14,48.85-58.24,50.81-94.87C217.11,38.49,217.62,22.29,212.1,12.81Z" transform="translate(-13.99 -10.66)"/>
</svg>