
<svg xmlns="http://www.w3.org/2000/svg" viewBox="0 0 199.12 230">
    <defs>
        <style>.a{fill:#371f11;}.b{fill:#532e13;}.c{fill:#ad8420;}.d{fill:#c49528;}.e{fill:#7c5613;}.f{fill:#6b4910;}.g{fill:#503513;}.h{fill:#935415;}.i{fill:#7b4411;}
        </style>
    </defs>
    <polyline class="a" points="99.41 114.96 99.41 153.36 0 95.8 0 57.48 99.41 114.96"/>
    <polyline class="b" points="0 95.8 0 57.48 99.41 114.96"/>
    <polyline class="b" points="99.56 114.96 99.56 153.36 198.97 95.8 198.97 57.48 99.56 114.96"/>
    <polyline class="c" points="99.41 153.28 99.41 191.68 0 134.12 0 95.8 99.41 153.28"/>
    <polyline class="d" points="0 134.12 0 95.8 99.41 153.28"/>
    <polyline class="e" points="99.56 153.28 99.56 191.68 198.97 134.12 198.97 95.8 99.56 153.28"/>
    <polyline class="f" points="99.41 191.59 99.41 230 0 172.44 0 134.12 99.41 191.59"/>
    <polyline class="e" points="0 172.44 0 134.12 99.41 191.59"/>
    <polyline class="g" points="99.56 191.59 99.56 230 198.97 172.44 198.97 134.12 99.56 191.59"/>
    <polygon class="h" points="0 57.48 99.41 114.96 199.12 57.48 99.56 0 0 57.48"/>
    <polyline class="i" points="0 57.48 99.41 114.96 199.12 57.48"/>
    <polygon class="c" points="124.88 154.5 110.41 162.86 110.41 159.64 124.88 151.29 124.88 154.5"/>
    <polygon class="c" points="139.34 156.57 124.88 164.93 124.88 161.71 139.34 153.36 139.34 156.57"/>
    <polygon class="c" points="173.39 131.54 158.93 139.9 158.93 136.68 173.39 128.34 173.39 131.54"/>
    <polygon class="c" points="192.61 127.75 178.14 136.11 178.14 132.89 192.61 124.54 192.61 127.75"/>
    <polygon class="f" points="143.77 191.39 129.31 199.75 129.31 196.53 143.77 188.18 143.77 191.39"/>
    <polygon class="f" points="166.15 172.25 151.69 180.62 151.69 177.4 166.15 169.04 166.15 172.25"/>
    <polygon class="f" points="182.39 169.86 167.93 178.22 167.93 175.01 182.39 166.66 182.39 169.86"/>
</svg>