
<svg xmlns="http://www.w3.org/2000/svg" xmlns:xlink="http://www.w3.org/1999/xlink" viewBox="0 0 230.57 230.56">
    <defs>
        <style>.a{fill:none;}.b{fill:#81c7ea;}.c{clip-path:url(#a);}.d{fill:#d3ecfa;}
        </style>
        <clipPath id="a" transform="translate(-9.45 -9.44)">
            <rect class="a" x="19.54" y="-81.95" width="133.18" height="301.77" transform="translate(73.97 -40.71) rotate(45)"/>
        </clipPath>
    </defs>
    <path class="b" d="M240,124.72a6,6,0,0,0-6.05-6h-9.51l9.06-9.06a6,6,0,0,0-8.55-8.55l-17.61,17.61h-9l9.06-9.06a6,6,0,0,0-8.56-8.55l-17.6,17.61h-42L169,89h24.9a6,6,0,0,0,0-12.09H181.09l6.33-6.33h24.9a6,6,0,0,0,0-12.09H199.51l6.73-6.73a6,6,0,0,0-8.55-8.55L191,49.94V37.13a6,6,0,1,0-12.09,0V62l-6.33,6.33V55.55a6,6,0,0,0-12.09,0v24.9l-29.68,29.68v-42l17.61-17.61A6,6,0,1,0,139.83,42l-9.06,9.06v-9L148.38,24.5A6,6,0,1,0,139.83,16L130.77,25V15.49a6,6,0,0,0-12.09,0V25L109.62,16a6,6,0,0,0-8.55,8.55l17.61,17.61v9L109.62,42a6,6,0,0,0-8.55,8.55l17.61,17.61v42L89,80.45V55.55a6,6,0,0,0-12.09,0V68.36L70.58,62V37.13a6,6,0,1,0-12.09,0V49.94l-6.73-6.73a6,6,0,0,0-8.55,8.55l6.73,6.73H37.13a6,6,0,1,0,0,12.09H62l6.33,6.33H55.55a6,6,0,1,0,0,12.09h24.9l29.68,29.68h-42L50.55,101.07A6,6,0,0,0,42,109.62l9.06,9.06h-9L24.5,101.07A6,6,0,0,0,16,109.62L25,118.68H15.49a6,6,0,0,0,0,12.09H25L16,139.83a6,6,0,0,0,8.55,8.55l17.61-17.61h9L42,139.83a6,6,0,0,0,8.55,8.55l17.61-17.61h42L80.45,160.45H55.55a6,6,0,1,0,0,12.09H68.36L62,178.87H37.13a6,6,0,1,0,0,12.09H49.94l-6.73,6.73a6,6,0,0,0,8.55,8.55l6.73-6.73v12.81a6,6,0,0,0,12.09,0v-24.9l6.33-6.33V193.9a6,6,0,0,0,12.09,0V169l29.68-29.68v42l-17.61,17.6a6,6,0,0,0,8.55,8.56l9-9.06v9L101.07,225a6,6,0,0,0,8.55,8.55l9-9.06V234a6,6,0,0,0,12.1,0v-9.51l9,9.06a6,6,0,0,0,8.55-8.55l-17.6-17.61v-9l9,9.06a6,6,0,1,0,8.55-8.55l-17.6-17.61v-42L160.44,169v24.9a6,6,0,1,0,12.09,0V181.09l6.33,6.33v24.9a6,6,0,1,0,12.09,0V199.51l6.73,6.73a6,6,0,0,0,8.55-8.55L199.5,191h12.81a6,6,0,1,0,0-12.09h-24.9l-6.33-6.33h12.81a6,6,0,1,0,0-12.09H169l-29.67-29.68h42l17.61,17.61a6,6,0,1,0,8.55-8.55l-9.06-9.06h9l17.61,17.61a6,6,0,1,0,8.55-8.55l-9.06-9.06H234A6.05,6.05,0,0,0,240,124.72Z" transform="translate(-9.45 -9.44)"/>
    <g class="c">
        <path class="d" d="M240,124.71a6,6,0,0,0-6-6h-9.52l9.06-9.06a6,6,0,1,0-8.55-8.55l-17.61,17.61H198.4l9.06-9.06a6,6,0,0,0-8.55-8.55L181.3,118.67h-42L169,89h24.9a6,6,0,1,0,0-12.09H181.1l6.33-6.33h24.9a6,6,0,1,0,0-12.09H199.52l6.73-6.73a6,6,0,0,0-8.55-8.55L191,49.93V37.12a6,6,0,1,0-12.09,0V62l-6.33,6.33V55.54a6,6,0,0,0-12.09,0v24.9l-29.68,29.68v-42l17.61-17.61A6,6,0,1,0,139.84,42l-9.06,9.06V42.1l17.61-17.61a6,6,0,1,0-8.55-8.55L130.78,25V15.48a6,6,0,0,0-12.09,0V25l-9.06-9.06a6,6,0,1,0-8.55,8.55L118.69,42.1v8.95L109.63,42a6,6,0,1,0-8.55,8.55l17.61,17.61v42L89,80.44V55.54a6,6,0,0,0-12.1,0V68.35L70.59,62V37.12a6,6,0,1,0-12.09,0V49.93L51.77,43.2a6,6,0,0,0-8.55,8.55L50,58.48H37.14a6,6,0,0,0,0,12.09H62l6.33,6.33H55.56a6,6,0,0,0,0,12.09h24.9l29.68,29.68h-42L50.56,101.06A6,6,0,0,0,42,109.61l9.06,9.06h-9L24.51,101.06A6,6,0,0,0,16,109.61L25,118.67H15.51a6,6,0,1,0,0,12.09H25L16,139.82a6,6,0,0,0,8.55,8.55l17.61-17.61h9L42,139.82a6,6,0,0,0,8.55,8.55l17.61-17.61h42L80.46,160.44H55.56a6,6,0,0,0,0,12.09H68.37L62,178.86H37.14a6,6,0,1,0,0,12.09H50l-6.73,6.73a6,6,0,0,0,8.55,8.55l6.73-6.73v12.81a6,6,0,0,0,12.09,0v-24.9l6.33-6.33v12.81a6,6,0,0,0,12.09,0V169l29.68-29.67v42l-17.61,17.6a6,6,0,1,0,8.55,8.56l9.06-9.06v9l-17.61,17.61a6,6,0,0,0,8.55,8.55l9.06-9.06v9.51a6,6,0,1,0,12.09,0v-9.51l9.06,9.06a6,6,0,1,0,8.55-8.55l-17.61-17.61v-9l9.06,9.06a6,6,0,1,0,8.55-8.56l-17.61-17.6v-42L160.45,169v24.9a6.05,6.05,0,0,0,12.1,0V181.08l6.32,6.33v24.9a6,6,0,0,0,12.1,0V199.5l6.72,6.73a6,6,0,0,0,8.55-8.55L199.52,191h12.81a6,6,0,0,0,0-12.09H187.42l-6.32-6.33h12.8a6,6,0,1,0,0-12.09H169l-29.67-29.68h42l17.61,17.61a6,6,0,1,0,8.55-8.55l-9-9.06h8.95L225,148.37a6,6,0,0,0,8.55-8.55l-9.05-9.06H234A6,6,0,0,0,240,124.71Z" transform="translate(-9.45 -9.44)"/>
    </g>
</svg>