
<svg xmlns="http://www.w3.org/2000/svg" viewBox="0 0 150.16 230">
    <defs>
        <style>.a{fill:#ba68a7;}.b{fill:#ab5da1;}.c{fill:#994694;}.d{fill:#91388d;}
        </style>
    </defs>
    <path class="a" d="M183.55,68.55a58.05,58.05,0,1,0-94.3,45.34v19.7a6.79,6.79,0,0,0,6.8,6.79h4.53a6.79,6.79,0,0,0,6.79-6.79,6.8,6.8,0,0,0,6.8,6.79h4.53a6.8,6.8,0,0,0,6.8-6.79,6.79,6.79,0,0,0,6.79,6.79h4.53a6.79,6.79,0,0,0,6.8-6.79,6.79,6.79,0,0,0,6.8,6.79H155a6.79,6.79,0,0,0,6.79-6.79v-19.7A57.92,57.92,0,0,0,183.55,68.55Z" transform="translate(-50.42 -10.5)"/>
    <path class="b" d="M98.49,115.71c0-3.22-1.28-5.6-2.56-6.61h0C63.6,80,73.59,26.89,114.32,11.58,65.9,21,50.76,83.09,89.25,113.89v19.7a6.79,6.79,0,0,0,6.8,6.79h4.42a6.78,6.78,0,0,1-2-4.79V115.71Z" transform="translate(-50.42 -10.5)"/>
    <path class="c" d="M161.36,71.19H136.13a3.53,3.53,0,0,0-3.53,3.53c0,10.5,7.25,19,16.15,19s16.14-8.53,16.14-19A3.53,3.53,0,0,0,161.36,71.19Z" transform="translate(-50.42 -10.5)"/>
    <path class="c" d="M114.86,71.19H89.63a3.53,3.53,0,0,0-3.53,3.53c0,10.5,7.24,19,16.15,19s16.14-8.53,16.14-19A3.53,3.53,0,0,0,114.86,71.19Z" transform="translate(-50.42 -10.5)"/>
    <path class="c" d="M125.5,99.2a1.28,1.28,0,0,0-1.11.61L114.83,115a1.31,1.31,0,0,0,1.1,2h19.13a1.31,1.31,0,0,0,1.07-2.07l-9.52-15.09A1.3,1.3,0,0,0,125.5,99.2Z" transform="translate(-50.42 -10.5)"/>
    <path class="d" d="M141.85,74.72a3.53,3.53,0,0,1,3.53-3.53h-9.25a3.53,3.53,0,0,0-3.53,3.53c0,10.5,7.25,19,16.15,19a13.76,13.76,0,0,0,4.62-.8C146.71,90.61,141.85,83.32,141.85,74.72Z" transform="translate(-50.42 -10.5)"/>
    <path class="d" d="M95.34,74.72a3.53,3.53,0,0,1,3.53-3.53H89.63a3.53,3.53,0,0,0-3.53,3.53C86.1,87.46,96.55,96.6,106.87,93,100.21,90.61,95.34,83.32,95.34,74.72Z" transform="translate(-50.42 -10.5)"/>
    <path class="d" d="M124,116.3a1.31,1.31,0,0,1,0-1.34l6.05-9.59-3.52-5.56a1.31,1.31,0,0,0-2.21,0L114.83,115a1.31,1.31,0,0,0,1.1,2h9.25A1.32,1.32,0,0,1,124,116.3Z" transform="translate(-50.42 -10.5)"/>
    <path class="b" d="M178.16,209.78,79.91,153.05A11.8,11.8,0,1,0,58.64,149a11.79,11.79,0,1,0,14.19,16.36l2.65,1.53,95.6,55.2a11.8,11.8,0,1,0,21.27,4.1,11.79,11.79,0,1,0-14.19-16.36Z" transform="translate(-50.42 -10.5)"/>
    <path class="c" d="M178.39,232.65a11.81,11.81,0,0,1-5.14-14.37h0a3.26,3.26,0,0,0-1.39-4L79.67,161c-2-1.18-3.86-.77-5,.57h0c-7.85,9.25-23,1.9-20.55-10a11.8,11.8,0,1,0,18.31,14.48,8.2,8.2,0,0,0,.4-.78l2.66,1.53L171.08,222a11.79,11.79,0,1,0,21.31,9A11.8,11.8,0,0,1,178.39,232.65Z" transform="translate(-50.42 -10.5)"/>
    <path class="a" d="M72.83,209.78l98.25-56.73a11.8,11.8,0,1,1,21.27-4.1,11.79,11.79,0,1,1-14.19,16.36L79.91,222a11.8,11.8,0,1,1-21.27,4.1,11.79,11.79,0,1,1,14.19-16.36Z" transform="translate(-50.42 -10.5)"/>
    <path class="b" d="M178.39,142.44a11.81,11.81,0,0,0-5.14,14.37h0a3.26,3.26,0,0,1-1.39,4L79.67,214.07c-2.09,1.21-4,.73-5-.58h0c-7.85-9.25-23-1.9-20.55,10a11.79,11.79,0,1,1,18.71-13.71l98.25-56.72a11.79,11.79,0,1,1,21.31-9A11.82,11.82,0,0,0,178.39,142.44Z" transform="translate(-50.42 -10.5)"/>
</svg>