
<svg xmlns="http://www.w3.org/2000/svg" viewBox="0 0 217.72 230">
    <defs>
        <style>.a{fill:#b89fcc;}.b{fill:#9274b2;}.c{fill:#da4b54;}.d{fill:#c42631;}.e{fill:#d5edf9;}
        </style>
    </defs>
    <circle class="a" cx="115.21" cy="94.68" r="94.68"/>
    <path class="b" d="M153.07,196.85a94.68,94.68,0,1,1,0-184.35,94.7,94.7,0,0,0,0,184.35Z" transform="translate(-16.14 -10)"/>
    <path class="c" d="M200.45,188.05l9.14,35.11a13.45,13.45,0,0,1-13,16.84H66.13a13.45,13.45,0,0,1-13-16.84l9.14-35.11,69.09-12.52Z" transform="translate(-16.14 -10)"/>
    <path class="d" d="M94.09,240h-28a13.45,13.45,0,0,1-13-16.84l9.14-35.11,69.09-12.51,69.1,12.51,3.61,13.87H102.23A20.22,20.22,0,0,0,82.67,217l-1.6,6.12a13.45,13.45,0,0,0,13,16.84Z" transform="translate(-16.14 -10)"/>
    <path class="c" d="M200.45,188.05H62.26a12.52,12.52,0,1,1,0-25H200.45a12.52,12.52,0,0,1,0,25Z" transform="translate(-16.14 -10)"/>
    <path class="d" d="M97.54,188.05H62.26a12.52,12.52,0,0,1,0-25H97.54a12.52,12.52,0,1,0,0,25Z" transform="translate(-16.14 -10)"/>
    <path class="e" d="M220,76.59l8.75-2.9a7.49,7.49,0,0,0,0-14.21L220,56.58a7.49,7.49,0,0,1-4.75-4.75l-2.9-8.75a7.49,7.49,0,0,0-14.21,0l-2.9,8.75a7.53,7.53,0,0,1-4.75,4.75l-8.75,2.9a7.49,7.49,0,0,0,0,14.21l8.75,2.9a7.51,7.51,0,0,1,4.75,4.75l2.9,8.75a7.49,7.49,0,0,0,14.21,0l2.9-8.75A7.47,7.47,0,0,1,220,76.59Z" transform="translate(-16.14 -10)"/>
    <path class="e" d="M175,111.46l5.9-2a5.05,5.05,0,0,0,0-9.59L175,98a5.05,5.05,0,0,1-3.21-3.21l-2-5.9a5,5,0,0,0-9.58,0l-2,5.9A5.05,5.05,0,0,1,155.08,98l-5.9,2a5.05,5.05,0,0,0,0,9.59l5.9,2a5,5,0,0,1,3.21,3.2l2,5.91a5,5,0,0,0,9.58,0l2-5.91A5,5,0,0,1,175,111.46Z" transform="translate(-16.14 -10)"/>
    <path class="e" d="M70.85,59.93l11-3.66a9.44,9.44,0,0,0,0-17.92l-11-3.65a9.45,9.45,0,0,1-6-6l-3.66-11a9.43,9.43,0,0,0-17.91,0l-3.66,11a9.45,9.45,0,0,1-6,6l-11,3.65a9.44,9.44,0,0,0,0,17.92l11,3.66a9.45,9.45,0,0,1,6,6l3.66,11A9.43,9.43,0,0,0,61.2,77l3.66-11A9.45,9.45,0,0,1,70.85,59.93Z" transform="translate(-16.14 -10)"/>
</svg>