
<svg xmlns="http://www.w3.org/2000/svg" viewBox="0 0 230 200.51">
    <defs>
        <style>.a{fill:#5c5c5c;}
        </style>
    </defs>
    <polygon class="a" points="173.1 49.99 114.78 153.81 57.18 49.99 173.1 49.99"/>
    <polygon class="a" points="74.65 1.74 34.85 1.77 0 62.76 20.42 98.13 51.53 98.13 30.8 62.76 50.51 28.63 90.38 28.98 74.65 1.74"/>
    <polygon class="a" points="59.48 166.06 79.41 200.51 149.65 200.2 170.07 164.83 154.51 137.88 134.25 173.52 94.84 173.52 75.2 138.82 59.48 166.06"/>
    <polygon class="a" points="210.13 95.16 230 60.68 194.61 0 153.77 0 138.21 26.95 179.21 26.67 198.92 60.81 178.68 95.16 210.13 95.16"/>
</svg>