<svg xmlns="http://www.w3.org/2000/svg" viewBox="0 0 96 96"><defs><style>.a{fill:#3f3f3f;}.a,.e{opacity:0.5;}.b{fill:#3c629a;}.c{fill:#f3d523;}.d{fill:#4f78bb;}.e{fill:#717171;}</style></defs><polygon class="a" points="27.48 27.91 29.56 25.75 35.38 37.62 47.36 38.17 45.35 40.28 33.12 39.82 27.48 27.91"/><polygon class="a" points="49.59 34.79 50.69 34.79 51.09 36.6 53.24 35.04 52.68 32.65 49.83 32.61 49.59 34.79"/><polygon class="a" points="43.09 43.06 40.97 45.23 39.44 60.16 55.25 58.8 41.37 57.93 43.09 43.06"/><polygon class="a" points="39.44 61.25 37.53 63.1 43.02 75.65 58.3 72.96 60.23 70.89 44.87 73.67 39.44 61.25"/><polygon class="b" points="29.56 25.75 31.36 23.62 37.94 35.43 49.37 35.68 49.13 30.1 55.2 30.08 56.39 33.76 45.69 40.87 44.34 55.52 57.23 56.66 55.25 58.8 41.37 57.93 43.09 43.06 45.28 40.82 53.24 35.04 52.68 32.65 49.83 32.61 49.44 36.07 47.36 38.17 35.38 37.62 29.56 25.75"/><polygon class="c" points="44.62 60.72 48.45 68.86 59.77 66.93 57.03 59.8 44.62 60.72"/><path class="d" d="M57,59.8l2.73,7.13L48.44,68.86l-3.82-8.14L57,59.8m1.26-2-1.4.1-12.42.91-2.74.2,1.17,2.49,3.83,8.14.61,1.3,1.41-.24,11.33-1.93,2.27-.39-.83-2.15L58.8,59.13l-.5-1.31Z"/><polygon class="b" points="44.87 73.67 60.23 70.89 62.33 68.38 47.35 70.95 41.75 59.04 39.44 61.25 44.87 73.67"/><polygon class="c" points="33.94 24.37 42.87 19.56 64.87 24.06 66.18 36.37 55.87 44.74 55.43 54.62 46.18 53.82 47.38 41.98 58.56 34.43 56.5 28.31 47.81 28.31 47.69 33.75 39.06 33.56 34.28 24.99 33.94 24.37"/><path class="d" d="M42.87,19.56l22,4.5,1.31,12.31L55.87,44.74l-.44,9.88-9.25-.8L47.38,42l11.18-7.55L56.5,28.31H47.81l-.13,5.44-8.62-.19L34.28,25l-.34-.62,8.93-4.81m-.29-2-.61.33L33,22.7l-1.71.91,1,1.69.34.62,4.78,8.57.53.95,1.09,0,8.62.19,1.9,0,.05-1.9.08-3.58h5.46l1.16,3.46-10,6.74-.74.49-.09.89-1.2,11.83-.2,1.93,1.92.16,9.26.8,2,.18.08-2,.4-9,9.65-7.83.8-.65-.11-1L66.76,23.86l-.15-1.38-1.36-.28-22-4.5-.67-.14Z"/><polygon class="e" points="41.27 21.17 63.27 25.75 64.5 37.74 66.18 36.37 64.87 24.06 42.87 19.56 33.94 24.37 34.28 24.99 41.27 21.17"/><polygon class="e" points="45.88 30.13 47.81 28.31 47.69 33.75 45.88 33.75 45.88 30.13"/><polygon class="e" points="53.9 54.48 54.06 46.37 55.87 44.74 55.43 54.62 53.9 54.48"/><polygon class="e" points="44.62 60.72 57.03 59.8 59.77 66.93 57.23 67.36 55.38 61.57 45.24 62.17 44.62 60.72"/></svg>