
<svg xmlns="http://www.w3.org/2000/svg" viewBox="0 0 189.47 229.68">
<defs>
    <style>.a{fill:#6dc8e6;}.b{fill:#5cbde3;}
    </style>
</defs>
<path class="a" d="M137.15,109.64a.91.91,0,0,0-.07-.14L85.89,10.82a1.25,1.25,0,0,0-2.2,0L32.5,109.5a.42.42,0,0,0-.06.14,57.72,57.72,0,0,0,52.31,77.9h.08a57.73,57.73,0,0,0,52.32-77.9Z" transform="translate(-28.76 -10.16)"/>
<path class="b" d="M88.74,177.64a64.1,64.1,0,0,1-19.23-45.47.91.91,0,0,1,0-.17L83.28,11.62,32.5,109.5a.42.42,0,0,0-.06.14,57.72,57.72,0,0,0,52.31,77.9h.08a57.39,57.39,0,0,0,13.56-2A65.35,65.35,0,0,1,88.74,177.64Z" transform="translate(-28.76 -10.16)"/>
<path class="b" d="M216.39,136.12l-.06-.14L191.09,87.32a1.25,1.25,0,0,0-2.2,0L163.65,136l-.06.14a29.08,29.08,0,0,0,17.07,37.43,29.21,29.21,0,0,0,9.29,1.82H190a29.07,29.07,0,0,0,26.36-39.25Z" transform="translate(-28.76 -10.16)"/>
<path class="a" d="M216.39,136.12l-.06-.14L191.09,87.32a1.24,1.24,0,0,0-1.1-.66h0L180,144.45c0,.05,0,.11,0,.16a32.13,32.13,0,0,0,16.71,29.76c.87-.24,1.73-.51,2.58-.82A29.13,29.13,0,0,0,216.39,136.12Z" transform="translate(-28.76 -10.16)"/>
<path class="b" d="M166.07,213l-16.82-32.42a1.24,1.24,0,0,0-1.1-.67,1.23,1.23,0,0,0-1.09.67L130.23,213l-.06.14a19.79,19.79,0,0,0,17.94,26.71h.08a19.79,19.79,0,0,0,17.94-26.71Z" transform="translate(-28.76 -10.16)"/>
<path class="a" d="M166.13,213.13l-.06-.14-16.82-32.42a1.24,1.24,0,0,0-1.1-.67,1.27,1.27,0,0,0-.38.07l-6.9,40.63a.88.88,0,0,0,0,.16,22.37,22.37,0,0,0,9,19,20.14,20.14,0,0,0,4.7-1.13A19.82,19.82,0,0,0,166.13,213.13Z" transform="translate(-28.76 -10.16)"/>
</svg>