<svg id="Livello_6" data-name="Livello 6" xmlns="http://www.w3.org/2000/svg" xmlns:xlink="http://www.w3.org/1999/xlink" viewBox="-12 -5 188 195"><defs><clipPath id="clip-path" transform="translate(-31.72 -1.87)"><path d="M-8.49-3.39V210.68H209.78V-3.39ZM119,82.16c-17.6,1.82-35.78,3.57-49.13-12.4h0a7.28,7.28,0,0,1-1.48-5.83,3.17,3.17,0,0,1,1.77-2.27A97.47,97.47,0,0,0,92.6,46.23,298.86,298.86,0,0,1,84.93,6.46c-.39-3.13,1.35-4.13,1.89-4.37a3.43,3.43,0,0,1,4.12,1.37c11.88,14.21,28.14,12.59,45.37,10.86C154.66,12.49,143.78,79.6,119,82.16Z" style="fill:none"/></clipPath></defs><g id="Livello_5" data-name="Livello 5"><g id="Page-1"><g id="_037---Waypoint-Flag" data-name="037---Waypoint-Flag"><path id="Shape" d="M71.52,68.38c-1.26-1.52-1.5-4.3-.5-4.73.59-.26,1.17-.55,1.78-.85a106.82,106.82,0,0,0,21.31-15,2,2,0,0,0,.67-1.61,2.78,2.78,0,0,0-.08-.49c-.63-2.33-1.22-4.69-1.8-7.14C90.81,29.79,89,20.16,87.49,9.31c-.13-1-.28-2.07-.41-3.11C86.82,4,88,3.34,89.27,4.86,115,35.67,160.41-3.67,185.34,30.12c-.47,1.69-.93,3.38-1.41,5.08L169,88.54v0l-1.43,5.08C142.66,59.85,97.3,99.19,71.52,68.38Z" transform="translate(-31.72 -1.87)" style="fill:#e64c3c"/><path id="Shape-2" data-name="Shape" d="M71.52,68.38c-1.26-1.52-1.5-4.3-.5-4.73.59-.26,1.17-.55,1.78-.85a106.82,106.82,0,0,0,21.31-15,2,2,0,0,0,.67-1.61,2.78,2.78,0,0,0-.08-.49c-.63-2.33-1.22-4.69-1.8-7.14C90.81,29.79,89,20.16,87.49,9.31c-.13-1-.28-2.07-.41-3.11C86.82,4,88,3.34,89.27,4.86a34.52,34.52,0,0,0,5.86,5.6c13.76,10.43,31.49,6.74,48.57,5.33,15.56-1.25,30.6-.63,41.64,14.33-.47,1.69,2.35,4.88,1.87,6.57q-7.4,26.48-14.78,52.91c0,.15-.08.28-.13.44v0c-.48,1.69-4.23,1.89-4.71,3.58a37.25,37.25,0,0,0-8.05-8.1h0c-24.09-17.31-59.83,7-83.33-12.5a36.07,36.07,0,0,1-4.67-4.66Z" transform="translate(-31.72 -1.87)" style="fill:#c81e1e"/><path id="Shape-3" data-name="Shape" d="M75.36,67.29c.67-.28,1.35-.61,2-1C85,62.54,91.27,56.55,99.93,49a2.38,2.38,0,0,0,.76-1.85c0-.18,0-.37-.09-.56-.74-2.67-1.41-5.4-2.08-8.22-2-8.49-5-19.71-6.51-29.91,13.75,10.44,34.61,8.72,51.69,7.31,15.56-1.25,30.6-.63,41.64,14.33-.47,1.69,2.35,4.88,1.87,6.57-4.93,17.65-14.32,41-19.25,58.6-4.08-2.11-3.93-9.05-8.42-9.75h0c-24.09-17.31-59.83,7-83.33-12.5l-.27-.3C74.49,71,74.21,67.79,75.36,67.29Z" transform="translate(-31.72 -1.87)" style="fill:#f44335"/><path id="Shape-4" data-name="Shape" d="M192.35,25.73A5.24,5.24,0,0,1,196,32.18L152.5,187a4.19,4.19,0,0,1-5.16,2.91l-2.32-.65a4.19,4.19,0,0,1-2.91-5.16L185.6,29.28a5.25,5.25,0,0,1,6.45-3.64l.3.09Z" transform="translate(-31.72 -1.87)" style="fill:#ff9801"/><path id="Shape-5" data-name="Shape" d="M145.74,192s-.88-.22-2.32-.64c-5.12-1.51-5.15-5.22-4.42-7.84L183.5,28.69a7.43,7.43,0,0,1,9.13-5.14l.3.09a7.43,7.43,0,0,1,5.14,9.13l-44.5,154.81C152.63,191.08,150,192.94,145.74,192Zm44.9-164.37a3.08,3.08,0,0,0-3,2.24l-44.5,155.82a2,2,0,0,0,1.41,2.49l2.32.64a2,2,0,0,0,2.48-1.4L193.89,31.6a3.08,3.08,0,0,0-2.13-3.78l-.3-.09a3.3,3.3,0,0,0-.82-.11Z" transform="translate(-31.72 -1.87)"/><path id="Shape-6" data-name="Shape" d="M165.86,94.94c-12-16.27-28.94-14.57-46.87-12.78-17.6,1.76-35.78,3.57-49.13-12.4h0a7.28,7.28,0,0,1-1.48-5.83,3.17,3.17,0,0,1,1.77-2.27A97.47,97.47,0,0,0,92.6,46.23,298.86,298.86,0,0,1,84.93,6.46c-.39-3.13,1.35-4.13,1.89-4.37a3.43,3.43,0,0,1,4.12,1.37c11.88,14.21,28.14,12.59,45.37,10.86,18.35-1.83,37.33-3.73,50.79,14.52a2.16,2.16,0,0,1,.34,1.87L169.69,94.23a2.16,2.16,0,0,1-1.7,1.55,1.72,1.72,0,0,1-.39,0A2.16,2.16,0,0,1,165.86,94.94ZM183,30.58c-11.95-15.37-28.6-13.7-46.23-11.94C120,20.31,102.71,22,89.56,8.42A289.69,289.69,0,0,0,96.8,45.1a4.26,4.26,0,0,1-1.27,4.31,103.79,103.79,0,0,1-23,15.91A3.2,3.2,0,0,0,73.19,67c11.88,14.21,28.15,12.58,45.37,10.86S153.41,74.36,166.64,89L183,30.58ZM71.89,65.63l0,0Z" transform="translate(-31.72 -1.87)"/></g></g></g><g style="clip-path:url(#clip-path)"><path d="M144.51,127.76c-3.17-10.79-2.51-15.88-4.59-26.23-2.27-11.23-10.57-17.72-18.77-21.62-9-4.28-21.38-4.47-23.76-4.47s-14.76.19-23.75,4.47c-8.2,3.9-16.51,10.39-18.77,21.62-2.09,10.35-1.43,15.44-4.59,26.23-2,6.7-.15,21.9,12.6,30.49C69.45,162.67,83.42,170,97.39,170s27.94-7.32,34.51-11.74C144.65,149.66,146.47,134.46,144.51,127.76Z" transform="translate(-31.72 -1.87)" style="fill:#ffdf1f;stroke:#3f321f;stroke-linecap:round;stroke-miterlimit:10;stroke-width:5px;stroke-dasharray:210,10,0,10,1000"/><circle cx="72.31" cy="120.25" r="7.47" transform="translate(-72.56 35.4) rotate(-22.73)" style="fill:#3f321f"/><path d="M76.16,117.78A3.16,3.16,0,1,1,73,114.62,3.17,3.17,0,0,1,76.16,117.78Z" transform="translate(-31.72 -1.87)" style="fill:#fff"/><circle cx="123.88" cy="120.25" r="7.47" transform="translate(-67.78 53.37) rotate(-22.02)" style="fill:#3f321f"/><path d="M120,117.78a3.16,3.16,0,1,0,3.16-3.16A3.17,3.17,0,0,0,120,117.78Z" transform="translate(-31.72 -1.87)" style="fill:#fff"/><path d="M83.17,135.63c.65.94,3.08,2.75,7.18,3.08,3.48.29,6.85-1.14,7.59-2.8a.16.16,0,0,1,.29,0c.74,1.66,4.12,3.09,7.6,2.8,4.1-.33,6.52-2.14,7.17-3.08" transform="translate(-31.72 -1.87)" style="fill:none;stroke:#3f321f;stroke-linecap:round;stroke-linejoin:round;stroke-width:3px"/><path d="M98.09,131.83" transform="translate(-31.72 -1.87)" style="fill:none;stroke:#2a2b2d;stroke-linecap:round;stroke-miterlimit:10;stroke-width:3px"/><path d="M98.08,130.77c-1.39,0-3.34-1.94-2.6-3.13s4.41-1.25,5.19,0S99.47,130.77,98.08,130.77Z" transform="translate(-31.72 -1.87)" style="fill:#493c2a;stroke:#3f321f;stroke-linejoin:round;stroke-width:3px"/><path d="M105.83,138.71c-3.48.29-6.86-1.14-7.6-2.8a.16.16,0,0,0-.29,0c-.74,1.66-4.11,3.09-7.59,2.8a13.28,13.28,0,0,1-3.18-.62c0,.22,0,.44,0,.67,0,7.72,2.76,19,10.93,19s10.93-11.27,10.93-19c0-.23,0-.45,0-.67A13.29,13.29,0,0,1,105.83,138.71Z" transform="translate(-31.72 -1.87)" style="fill:#493c2a;stroke:#3f321f;stroke-linejoin:round;stroke-width:3px"/><path d="M98.09,131.83" transform="translate(-31.72 -1.87)" style="fill:none;stroke:#2a2b2d;stroke-linecap:round;stroke-linejoin:round;stroke-width:3px"/><path d="M98.09,142.24c-5.08,0-8,3.15-9.44,6.81,1.61,4.79,4.58,8.7,9.44,8.7s7.82-3.91,9.43-8.7C106.08,145.4,103.16,142.24,98.09,142.24Z" transform="translate(-31.72 -1.87)" style="fill:#e77374;stroke:#3f321f;stroke-linejoin:round;stroke-width:2px"/><path d="M133.36,154a10.53,10.53,0,1,1,9.12-17.11A28.41,28.41,0,0,1,133.36,154Z" transform="translate(-31.72 -1.87)" style="fill:#ef3a3a"/><path d="M61.44,154.08A28.43,28.43,0,0,1,52.32,137a10.53,10.53,0,1,1,9.12,17.12Z" transform="translate(-31.72 -1.87)" style="fill:#ef3a3a"/><path d="M136.14,98.4a123.51,123.51,0,0,0,47.45-21.05,2,2,0,0,0-.76-3.31c-6.69-2.23-22.05-6.19-36.72-1.77-15,4.51-22.12,12.2-22.12,12.2" transform="translate(-31.72 -1.87)" style="fill:#ffdf1f;stroke:#3f321f;stroke-linecap:round;stroke-miterlimit:10;stroke-width:5px"/><path d="M182.83,74l-1.43-.46-.9.68a120,120,0,0,1-44.91,20.5,1.24,1.24,0,0,0-.72,1.95l1.27,1.69a123.51,123.51,0,0,0,47.45-21.05A2,2,0,0,0,182.83,74Z" transform="translate(-31.72 -1.87)" style="fill:#3f321f;opacity:0.15"/><path d="M183.59,77.35a121,121,0,0,1-12.79,8.16c-2-3.61-6.11-9.42-14-15.12a71,71,0,0,1,26,3.65A2,2,0,0,1,183.59,77.35Z" transform="translate(-31.72 -1.87)" style="fill:#3f321f"/><path d="M77.76,82.65s-11-26.87-40.5-48.3a2,2,0,0,0-3,1.75c-.06,7.25.94,23.54,10,36.6,9.28,13.33,20.2,19,20.2,19" transform="translate(-31.72 -1.87)" style="fill:#ffdf1f;stroke:#3f321f;stroke-linecap:round;stroke-miterlimit:10;stroke-width:5px"/><path d="M37.17,34.32A120.76,120.76,0,0,1,48.82,44c-2.84,3-7.13,8.68-10.19,17.9A71.11,71.11,0,0,1,34.25,36,2,2,0,0,1,37.17,34.32Z" transform="translate(-31.72 -1.87)" style="fill:#3f321f"/><path d="M47.12,69.64C38.9,57.62,37,43,36.62,34.06a2,2,0,0,0-2.37,2c-.1,7.05.77,22.89,9.42,35.54C52.51,84.5,63,90,63,90L64,89.21a1.22,1.22,0,0,0,0-2A72.15,72.15,0,0,1,47.12,69.64Z" transform="translate(-31.72 -1.87)" style="fill:#3f321f;opacity:0.15"/><g style="opacity:0.5"><path d="M131,102.11c-2.82-7.28-8.76-11.45-14.55-14" transform="translate(-31.72 -1.87)" style="fill:none;stroke:#fff;stroke-linecap:round;stroke-miterlimit:10;stroke-width:4px"/><path d="M133.39,112c-.26-1.49-.54-3.06-.93-4.8" transform="translate(-31.72 -1.87)" style="fill:none;stroke:#fff;stroke-linecap:round;stroke-miterlimit:10;stroke-width:4px"/></g><path d="M138.09,152.07c-6.58,4.42-20.55,11.74-34.52,11.74s-27.93-7.32-34.51-11.74c-12.75-8.59-14.57-23.79-12.6-30.49,3.17-10.79,2.5-15.88,4.59-26.23a27.2,27.2,0,0,1,1.73-5.5c-.26-.14-.81-.46-1.59-1a26.74,26.74,0,0,0-6.32,12.64c-2.09,10.35-1.43,15.44-4.59,26.23-2,6.7-.15,21.9,12.6,30.49C69.45,162.67,83.42,170,97.39,170s27.94-7.32,34.51-11.74a29.07,29.07,0,0,0,7.26-6.94C138.81,151.57,138.45,151.82,138.09,152.07Z" transform="translate(-31.72 -1.87)" style="fill:#3f321f;opacity:0.15"/></g><path d="M131.24,47.88a1.61,1.61,0,0,1,1.19,1.86l-3.6,16.47A1.59,1.59,0,0,1,127,67.4L123,66.54c-.87-.19-1.11-1.1-1.19-1.85l-.14-.77a11.92,11.92,0,0,1-7.94,1.21c-10-2.18-14.11-10.45-11.93-20.42s9.5-16.22,19.46-14c6.63,1.44,10.5,4.5,11.82,10a1.79,1.79,0,0,1,0,.8,1.51,1.51,0,0,1-1.07,1.24l-4.24,1.1a1.62,1.62,0,0,1-.79,0,1.58,1.58,0,0,1-1.3-1.08c-1.11-3.37-3.3-4-6-4.64-5.1-1.11-8.11,3.39-9.23,8.49s-.15,10,5,11.09a9.53,9.53,0,0,0,7.52-1.8l.53-2.46-3.69-.81a1.55,1.55,0,0,1-1.25-1.87l.83-3.81a1.69,1.69,0,0,1,1.93-1.23Z" transform="translate(-31.72 -1.87)" style="fill:#fff"/><path d="M169.7,46.44a1.59,1.59,0,0,1,1.21,1.84l-3.44,16.51A1.59,1.59,0,0,1,165.62,66l-3.93-.82c-.88-.18-1.12-1.09-1.21-1.84l-.15-.77a11.88,11.88,0,0,1-7.93,1.29c-10-2.08-14.21-10.31-12.13-20.3s9.34-16.32,19.33-14.24c6.63,1.38,10.54,4.4,11.91,9.9a1.54,1.54,0,0,1,0,.8,1.5,1.5,0,0,1-1.05,1.25l-4.22,1.14a1.66,1.66,0,0,1-.8,0,1.6,1.6,0,0,1-1.31-1.07c-1.14-3.36-3.34-4-6.1-4.58-5.11-1.06-8.07,3.47-9.14,8.58s-.05,10,5.06,11a9.51,9.51,0,0,0,7.49-1.87l.52-2.47-3.7-.77A1.56,1.56,0,0,1,157,49.43l.8-3.81a1.68,1.68,0,0,1,1.91-1.26Z" transform="translate(-31.72 -1.87)" style="fill:#fff"/></svg>