<svg id="Livello_7" data-name="Livello 7" xmlns="http://www.w3.org/2000/svg" viewBox="-30 -30 200 200"><path d="M144.51,127.76c-3.17-10.79-2.51-15.88-4.59-26.23-2.27-11.23-10.57-17.72-18.77-21.62-9-4.28-21.38-4.47-23.76-4.47s-14.76.19-23.75,4.47c-8.2,3.9-16.51,10.39-18.77,21.62-2.09,10.35-1.43,15.44-4.59,26.23-2,6.7-.15,21.9,12.6,30.49C69.45,162.67,83.42,170,97.39,170s27.94-7.32,34.51-11.74C144.65,149.66,146.47,134.46,144.51,127.76Z" transform="translate(-31.72 -31.54)" style="fill:#ffdf1f;stroke:#3f321f;stroke-linecap:round;stroke-miterlimit:10;stroke-width:5px;stroke-dasharray:210,10,0,10,1000"/><circle cx="72.31" cy="120.25" r="7.47" transform="translate(-72.56 5.73) rotate(-22.73)" style="fill:#3f321f"/><path d="M76.16,117.78A3.16,3.16,0,1,1,73,114.62,3.17,3.17,0,0,1,76.16,117.78Z" transform="translate(-31.72 -31.54)" style="fill:#fff"/><circle cx="123.88" cy="120.25" r="7.47" transform="translate(-67.78 23.69) rotate(-22.02)" style="fill:#3f321f"/><path d="M120,117.78a3.16,3.16,0,1,0,3.16-3.16A3.17,3.17,0,0,0,120,117.78Z" transform="translate(-31.72 -31.54)" style="fill:#fff"/><path d="M83.17,135.63c.65.94,3.08,2.75,7.18,3.08,3.48.29,6.85-1.14,7.59-2.8a.16.16,0,0,1,.29,0c.74,1.66,4.12,3.09,7.6,2.8,4.1-.33,6.52-2.14,7.17-3.08" transform="translate(-31.72 -31.54)" style="fill:none;stroke:#3f321f;stroke-linecap:round;stroke-linejoin:round;stroke-width:3px"/><path d="M98.09,131.83" transform="translate(-31.72 -31.54)" style="fill:none;stroke:#2a2b2d;stroke-linecap:round;stroke-miterlimit:10;stroke-width:3px"/><path d="M98.08,130.77c-1.39,0-3.34-1.94-2.6-3.13s4.41-1.25,5.19,0S99.47,130.77,98.08,130.77Z" transform="translate(-31.72 -31.54)" style="fill:#493c2a;stroke:#3f321f;stroke-linejoin:round;stroke-width:3px"/><path d="M105.83,138.71c-3.48.29-6.86-1.14-7.6-2.8a.16.16,0,0,0-.29,0c-.74,1.66-4.11,3.09-7.59,2.8a13.28,13.28,0,0,1-3.18-.62c0,.22,0,.44,0,.67,0,7.72,2.76,19,10.93,19s10.93-11.27,10.93-19c0-.23,0-.45,0-.67A13.29,13.29,0,0,1,105.83,138.71Z" transform="translate(-31.72 -31.54)" style="fill:#493c2a;stroke:#3f321f;stroke-linejoin:round;stroke-width:3px"/><path d="M98.09,131.83" transform="translate(-31.72 -31.54)" style="fill:none;stroke:#2a2b2d;stroke-linecap:round;stroke-linejoin:round;stroke-width:3px"/><path d="M98.09,142.24c-5.08,0-8,3.15-9.44,6.81,1.61,4.79,4.58,8.7,9.44,8.7s7.82-3.91,9.43-8.7C106.08,145.4,103.16,142.24,98.09,142.24Z" transform="translate(-31.72 -31.54)" style="fill:#e77374;stroke:#3f321f;stroke-linejoin:round;stroke-width:2px"/><path d="M133.36,154a10.53,10.53,0,1,1,9.12-17.11A28.41,28.41,0,0,1,133.36,154Z" transform="translate(-31.72 -31.54)" style="fill:#ef3a3a"/><path d="M61.44,154.08A28.43,28.43,0,0,1,52.32,137a10.53,10.53,0,1,1,9.12,17.12Z" transform="translate(-31.72 -31.54)" style="fill:#ef3a3a"/><path d="M136.14,98.4a123.51,123.51,0,0,0,47.45-21.05,2,2,0,0,0-.76-3.31c-6.69-2.23-22.05-6.19-36.72-1.77-15,4.51-22.12,12.2-22.12,12.2" transform="translate(-31.72 -31.54)" style="fill:#ffdf1f;stroke:#3f321f;stroke-linecap:round;stroke-miterlimit:10;stroke-width:5px"/><path d="M182.83,74l-1.43-.46-.9.68a120,120,0,0,1-44.91,20.5,1.24,1.24,0,0,0-.72,1.95l1.27,1.69a123.51,123.51,0,0,0,47.45-21.05A2,2,0,0,0,182.83,74Z" transform="translate(-31.72 -31.54)" style="fill:#3f321f;opacity:0.15"/><path d="M183.59,77.35a121,121,0,0,1-12.79,8.16c-2-3.61-6.11-9.42-14-15.12a71,71,0,0,1,26,3.65A2,2,0,0,1,183.59,77.35Z" transform="translate(-31.72 -31.54)" style="fill:#3f321f"/><path d="M77.76,82.65s-11-26.87-40.5-48.3a2,2,0,0,0-3,1.75c-.06,7.25.94,23.54,10,36.6,9.28,13.33,20.2,19,20.2,19" transform="translate(-31.72 -31.54)" style="fill:#ffdf1f;stroke:#3f321f;stroke-linecap:round;stroke-miterlimit:10;stroke-width:5px"/><path d="M37.17,34.32A120.76,120.76,0,0,1,48.82,44c-2.84,3-7.13,8.68-10.19,17.9A71.11,71.11,0,0,1,34.25,36,2,2,0,0,1,37.17,34.32Z" transform="translate(-31.72 -31.54)" style="fill:#3f321f"/><path d="M47.12,69.64C38.9,57.62,37,43,36.62,34.06a2,2,0,0,0-2.37,2c-.1,7.05.77,22.89,9.42,35.54C52.51,84.5,63,90,63,90L64,89.21a1.22,1.22,0,0,0,0-2A72.15,72.15,0,0,1,47.12,69.64Z" transform="translate(-31.72 -31.54)" style="fill:#3f321f;opacity:0.15"/><g style="opacity:0.5"><path d="M131,102.11c-2.82-7.28-8.76-11.45-14.55-14" transform="translate(-31.72 -31.54)" style="fill:none;stroke:#fff;stroke-linecap:round;stroke-miterlimit:10;stroke-width:4px"/><path d="M133.39,112c-.26-1.49-.54-3.06-.93-4.8" transform="translate(-31.72 -31.54)" style="fill:none;stroke:#fff;stroke-linecap:round;stroke-miterlimit:10;stroke-width:4px"/></g><path d="M138.09,152.07c-6.58,4.42-20.55,11.74-34.52,11.74s-27.93-7.32-34.51-11.74c-12.75-8.59-14.57-23.79-12.6-30.49,3.17-10.79,2.5-15.88,4.59-26.23a27.2,27.2,0,0,1,1.73-5.5c-.26-.14-.81-.46-1.59-1a26.74,26.74,0,0,0-6.32,12.64c-2.09,10.35-1.43,15.44-4.59,26.23-2,6.7-.15,21.9,12.6,30.49C69.45,162.67,83.42,170,97.39,170s27.94-7.32,34.51-11.74a29.07,29.07,0,0,0,7.26-6.94C138.81,151.57,138.45,151.82,138.09,152.07Z" transform="translate(-31.72 -31.54)" style="fill:#3f321f;opacity:0.15"/><path d="M89.71,118.07l-.19.55a20.56,20.56,0,0,1-19.47,14,21,21,0,0,1-4-.38l-.26-.06a8.34,8.34,0,0,1-6.33-5.89c-.71-2.44-1.39-5.27-2-8.42-.14-.69-.28-1.46-.43-2.29a4.68,4.68,0,0,1,4-5.45,70.13,70.13,0,0,1,24.55.68,5.56,5.56,0,0,1,4.12,7.23Z" transform="translate(-31.72 -31.54)"/><path d="M136.73,126.32a8.34,8.34,0,0,1-6.33,5.89l-.25.06a21.16,21.16,0,0,1-4,.38,20.56,20.56,0,0,1-19.47-14l-.19-.56a5.55,5.55,0,0,1,4.12-7.22,67.18,67.18,0,0,1,14-1.44,74.73,74.73,0,0,1,10.57.76,4.68,4.68,0,0,1,4,5.45c-.15.83-.29,1.6-.43,2.29C138.11,121.05,137.44,123.88,136.73,126.32Z" transform="translate(-31.72 -31.54)"/><path d="M86.05,108.68a72.59,72.59,0,0,0-25.32-.7,6.88,6.88,0,0,0-5.83,8c.15.84.3,1.63.44,2.34.64,3.21,1.33,6.11,2.06,8.6a10.52,10.52,0,0,0,8,7.44l.27.06a23.06,23.06,0,0,0,4.38.43,22.79,22.79,0,0,0,21.56-15.53l.19-.56a7.78,7.78,0,0,0-5.75-10.09Zm3.66,9.39-.19.55a20.56,20.56,0,0,1-19.47,14,21,21,0,0,1-4-.38l-.26-.06a8.34,8.34,0,0,1-6.33-5.89c-.71-2.44-1.39-5.27-2-8.42-.14-.69-.28-1.46-.43-2.29a4.68,4.68,0,0,1,4-5.45,70.13,70.13,0,0,1,24.55.68,5.56,5.56,0,0,1,4.12,7.23Z" transform="translate(-31.72 -31.54)"/><path d="M85.35,112a66.17,66.17,0,0,0-13.77-1.41c-1.25,0-2.53,0-3.81.1a1.1,1.1,0,0,0,.12,2.2c1.24-.06,2.48-.1,3.69-.1a64.47,64.47,0,0,1,13.31,1.36A2.22,2.22,0,0,1,86.54,117a1.09,1.09,0,0,0,.69,1.39,1.1,1.1,0,0,0,1.4-.69A4.42,4.42,0,0,0,85.35,112Z" transform="translate(-31.72 -31.54)" style="fill:#fff"/><path d="M140.9,118.33c.14-.71.29-1.49.44-2.34a6.88,6.88,0,0,0-5.83-8,72.58,72.58,0,0,0-25.32.7,7.78,7.78,0,0,0-5.75,10.09l.19.56a22.78,22.78,0,0,0,21.56,15.53,23.25,23.25,0,0,0,4.39-.43l.26-.06a10.53,10.53,0,0,0,8-7.44C139.57,124.44,140.26,121.54,140.9,118.33Zm-4.17,8a8.34,8.34,0,0,1-6.33,5.89l-.25.06a21.16,21.16,0,0,1-4,.38,20.56,20.56,0,0,1-19.47-14l-.19-.56a5.55,5.55,0,0,1,4.12-7.22,67.18,67.18,0,0,1,14-1.44,74.73,74.73,0,0,1,10.57.76,4.68,4.68,0,0,1,4,5.45c-.15.83-.29,1.6-.43,2.29C138.11,121.05,137.44,123.88,136.73,126.32Z" transform="translate(-31.72 -31.54)"/><path d="M135,111.29a74.73,74.73,0,0,0-10.39-.74c-1.32,0-2.65,0-4,.11a1.1,1.1,0,0,0-1,1.16,1.09,1.09,0,0,0,1.16,1c1.26-.07,2.55-.11,3.83-.11a73.48,73.48,0,0,1,10.08.72,1.38,1.38,0,0,1,.91.55,1.28,1.28,0,0,1,.23,1,1.11,1.11,0,0,0,.89,1.28l.2,0a1.1,1.1,0,0,0,1.08-.91,3.46,3.46,0,0,0-.62-2.68A3.52,3.52,0,0,0,135,111.29Z" transform="translate(-31.72 -31.54)" style="fill:#fff"/><path d="M142.06,127.87c1.53-5.88,2.79-12.34,3.17-14.73h2.18a1.11,1.11,0,0,0,1.1-1.11v-5.36a1.08,1.08,0,0,0-.79-1c-20.47-6-36.24-2.77-43.83-.28a18.4,18.4,0,0,1-11.55,0c-7.58-2.49-23.35-5.76-43.82.28a1.08,1.08,0,0,0-.79,1V112a1.11,1.11,0,0,0,1.1,1.11H51a127.07,127.07,0,0,0,3.17,14.73c.12.41.28.69.41,1.2s3.47,8,10.25,8.61l.18,0a25.73,25.73,0,0,0,5,.49c9.62,0,19.75-6.55,24.28-15.12l8.18-.14a26.26,26.26,0,0,0,23.76,15.26,25.73,25.73,0,0,0,5-.49l.15,0a15.19,15.19,0,0,0,5.22-2.21A14.15,14.15,0,0,0,142.06,127.87ZM95,121.13a9.53,9.53,0,0,0,.28-1c.57-1.67.74-3,1.12-4.08a1.77,1.77,0,0,1,1.76-1.29,2,2,0,0,1,1.9,1.37c.37,1.11.86,2.72,1.42,4.39l.17.5Zm-4.2-7.62c-.37,1.11.46,4.59-.1,6.26-3.84,11.34-20.74,14.17-20.74,14.17-4.31-.86-10.58-2.85-11.81-7.08C56,119.73,57,110.71,57,110.63c-.08-.54,17.92-3.71,25.16-1.33C86.36,110.68,91.34,111.79,90.76,113.51Zm49-1.75s-.11,14.25-3.91,19c-2.3,2.88-7.26,3.49-10.68,3.49-4.16,0-10.55-2.89-14.37-6.67a21.94,21.94,0,0,1-5.65-9.86s-.91-4.61,2.87-7.19c3-2,9.29-2.17,15.72-2C138.36,108.73,139.75,111.76,139.75,111.76Z" transform="translate(-31.72 -31.54)"/></svg>