<svg id="Livello_2" data-name="Livello 2" xmlns="http://www.w3.org/2000/svg" viewBox="-7 -30 193 130"><path d="M144.4,125.46c-3.16-10.79-2.5-15.89-4.59-26.24C137.55,88,129.24,81.51,121.05,77.61c-9-4.28-21.39-4.47-23.76-4.47s-14.77.19-23.76,4.47C65.33,81.51,57,88,54.76,99.22c-2.08,10.35-1.42,15.45-4.59,26.24-2,6.7-.14,21.9,12.61,30.48,6.57,4.43,20.54,11.74,34.51,11.74s27.94-7.31,34.51-11.74C144.55,147.36,146.37,132.16,144.4,125.46Z" transform="translate(-8.89 -64.32)" style="fill:#ffdf1f;stroke:#3f321f;stroke-linecap:round;stroke-miterlimit:10;stroke-width:5px;stroke-dasharray:210,10,0,10,1000"/><path d="M92.15,141.68c1.56,0,5-1.11,5.79-2.77a.16.16,0,0,1,.29,0c.74,1.66,3.33,2.86,4.82,2.86" transform="translate(-8.89 -64.32)" style="fill:none;stroke:#3f321f;stroke-linecap:round;stroke-linejoin:round;stroke-width:3px"/><path d="M98.09,134.83" transform="translate(-8.89 -64.32)" style="fill:none;stroke:#2a2b2d;stroke-linecap:round;stroke-miterlimit:10;stroke-width:3px"/><path d="M98.08,128.77c-1.39,0-3.34-1.94-2.6-3.13s4.41-1.25,5.19,0S99.47,128.77,98.08,128.77Z" transform="translate(-8.89 -64.32)" style="fill:#493c2a;stroke:#3f321f;stroke-linejoin:round;stroke-width:3px"/><path d="M98.23,138.91a.16.16,0,0,0-.29,0c-.74,1.66-4.86,3.48-5.77,3.18.68,1.66,10.38,2.36,10.83,0C102.09,142.39,99,140.57,98.23,138.91Z" transform="translate(-8.89 -64.32)" style="fill:#493c2a;stroke:#3f321f;stroke-linejoin:round;stroke-width:3px"/><path d="M98.09,134.83" transform="translate(-8.89 -64.32)" style="fill:none;stroke:#2a2b2d;stroke-linecap:round;stroke-linejoin:round;stroke-width:3px"/><path d="M133.36,152a10.53,10.53,0,1,1,9.12-17.11A28.41,28.41,0,0,1,133.36,152Z" transform="translate(-8.89 -64.32)" style="fill:#ef3a3a"/><path d="M61.44,152.08A28.43,28.43,0,0,1,52.32,135a10.53,10.53,0,1,1,9.12,17.12Z" transform="translate(-8.89 -64.32)" style="fill:#ef3a3a"/><path d="M136.14,96.4a123.51,123.51,0,0,0,47.45-21.05,2,2,0,0,0-.76-3.31c-6.69-2.23-22.05-6.19-36.72-1.77-15,4.51-22.12,12.2-22.12,12.2" transform="translate(-8.89 -64.32)" style="fill:#ffdf1f;stroke:#3f321f;stroke-linecap:round;stroke-miterlimit:10;stroke-width:5px"/><path d="M182.83,72l-1.43-.46-.9.68a120,120,0,0,1-44.91,20.5,1.24,1.24,0,0,0-.72,1.95l1.27,1.69a123.51,123.51,0,0,0,47.45-21.05A2,2,0,0,0,182.83,72Z" transform="translate(-8.89 -64.32)" style="fill:#3f321f;opacity:0.15"/><path d="M183.59,75.35a121,121,0,0,1-12.79,8.16c-2-3.61-6.11-9.42-14-15.12a71,71,0,0,1,26,3.65A2,2,0,0,1,183.59,75.35Z" transform="translate(-8.89 -64.32)" style="fill:#3f321f"/><g style="opacity:0.5"><path d="M131,100.11c-2.82-7.28-8.76-11.45-14.55-14" transform="translate(-8.89 -64.32)" style="fill:none;stroke:#fff;stroke-linecap:round;stroke-miterlimit:10;stroke-width:4px"/><path d="M133.39,110c-.26-1.49-.54-3.06-.93-4.8" transform="translate(-8.89 -64.32)" style="fill:none;stroke:#fff;stroke-linecap:round;stroke-miterlimit:10;stroke-width:4px"/></g><path d="M97.39,160.11" transform="translate(-8.89 -64.32)" style="fill:none;stroke:#2a2b2d;stroke-miterlimit:10;stroke-width:5px"/><path d="M138.09,150.07c-6.58,4.42-20.55,11.74-34.52,11.74s-27.93-7.32-34.51-11.74c-12.75-8.59-14.57-23.79-12.6-30.49,3.17-10.79,2.5-15.88,4.59-26.23a27.2,27.2,0,0,1,1.73-5.5c-.26-.14-.81-.46-1.59-1a26.74,26.74,0,0,0-6.32,12.64c-2.09,10.35-1.43,15.44-4.59,26.23-2,6.7-.15,21.9,12.6,30.49C69.45,160.67,83.42,168,97.39,168s27.94-7.32,34.51-11.74a29.07,29.07,0,0,0,7.26-6.94C138.81,149.57,138.45,149.82,138.09,150.07Z" transform="translate(-8.89 -64.32)" style="fill:#3f321f;opacity:0.15"/><path d="M59.83,94.58A123.63,123.63,0,0,1,12.07,74.27a2,2,0,0,1,.7-3.32c6.65-2.33,22-6.54,36.69-2.35,15.06,4.28,22.3,11.86,22.3,11.86" transform="translate(-8.89 -64.32)" style="fill:#ffdf1f;stroke:#3f321f;stroke-linecap:round;stroke-miterlimit:10;stroke-width:5px"/><path d="M12.77,71c.43-.16.92-.32,1.42-.48l.92.66A120.17,120.17,0,0,0,60.33,90.94a1.23,1.23,0,0,1,.75,1.93l-1.25,1.71A123.63,123.63,0,0,1,12.07,74.27,2,2,0,0,1,12.77,71Z" transform="translate(-8.89 -64.32)" style="fill:#3f321f;opacity:0.15"/><path d="M12.07,74.27a119.3,119.3,0,0,0,12.91,8A47.59,47.59,0,0,1,38.71,66.89,71,71,0,0,0,12.77,71,2,2,0,0,0,12.07,74.27Z" transform="translate(-8.89 -64.32)" style="fill:#3f321f"/><path d="M79.2,115.37a7.45,7.45,0,0,0-6.66-4.58l-7.21,4.81a7.47,7.47,0,1,0,13.87-.23Z" transform="translate(-8.89 -64.32)" style="fill:#3f321f"/><path d="M76.16,115.78A3.16,3.16,0,1,1,73,112.62,3.17,3.17,0,0,1,76.16,115.78Z" transform="translate(-8.89 -64.32)" style="fill:#fff"/><path d="M67.42,117.65a1.13,1.13,0,1,0,2.26,0,1.13,1.13,0,1,0-2.26,0Z" transform="translate(-8.89 -64.32)" style="fill:#fff"/><path d="M70.27,120a.55.55,0,0,0,.55.55.55.55,0,0,0,0-1.1A.55.55,0,0,0,70.27,120Z" transform="translate(-8.89 -64.32)" style="fill:#fff"/><path d="M123,110.83a7.47,7.47,0,1,0,8,5.35Z" transform="translate(-8.89 -64.32)" style="fill:#3f321f"/><path d="M120,115.78a3.16,3.16,0,1,0,3.16-3.16A3.17,3.17,0,0,0,120,115.78Z" transform="translate(-8.89 -64.32)" style="fill:#fff"/><path d="M127.42,117.65a1.13,1.13,0,1,0,2.26,0,1.13,1.13,0,1,0-2.26,0Z" transform="translate(-8.89 -64.32)" style="fill:#fff"/><path d="M125.91,119.28a.55.55,0,1,0,.54-.55A.55.55,0,0,0,125.91,119.28Z" transform="translate(-8.89 -64.32)" style="fill:#fff"/><g id="Livello_4" data-name="Livello 4"><path d="M65.75,121.82s.16-.57.71-.07a4.9,4.9,0,0,0,2.63.85c1,.05,2.1-.32,3.43-.32a22.31,22.31,0,0,0,3,.24,9.27,9.27,0,0,0,2.68-1.31.75.75,0,0,1,.86.22l0,2.42a34.46,34.46,0,0,0,1.36,10.4h0a15.83,15.83,0,0,1,.52,6.12L80,148.15a87.7,87.7,0,0,0-.27,17.67,62,62,0,0,1,.19,7l-.11,4.62c-.15,7.05.62,4.09,2.3,10.93a4.75,4.75,0,0,1-.58,3.68h0a4.72,4.72,0,0,1-4,2.18l-9.76,0a4.55,4.55,0,0,1-3.2-2h0a2.85,2.85,0,0,1-.38-2.39c3.84-13.13,3.61-12.4,2.62-26.37h0a98.92,98.92,0,0,1,.11-15.3l.35-4.06A58.77,58.77,0,0,0,67,131.16Z" transform="translate(-8.89 -64.32)" style="fill:#50e6ff"/><path d="M69.56,193.58l-3.7-.18a4.56,4.56,0,0,0,2,.75l9.76,0a4.69,4.69,0,0,0,4.56-5.86c-1.68-6.84-2.45-3.88-2.3-10.93l.11-4.62a62,62,0,0,0-.19-7A87.7,87.7,0,0,1,80,148.15l.86-7.78a15.83,15.83,0,0,0-.52-6.12A34.46,34.46,0,0,1,79,123.85l0-2.42v0a.75.75,0,0,0-.85-.2,17.75,17.75,0,0,1-2.09,1.13,4,4,0,0,1-.59.18,23.65,23.65,0,0,0,.34,7c.49,2.69,2.27,5.88,2.33,9.49.07,4.46-1.36,9.56-1.52,14.8-.2,6.63,0,13.59-.17,20.1-.19,9.44,1.34,8.24,1.43,13.27C77.66,190.84,73.37,193.76,69.56,193.58Z" transform="translate(-8.89 -64.32)" style="fill:#a4ecff"/><path d="M117.35,121.82s.16-.57.71-.07a4.86,4.86,0,0,0,2.62.85c1,.05,2.11-.32,3.44-.32a22.19,22.19,0,0,0,3,.24,9.27,9.27,0,0,0,2.68-1.31.75.75,0,0,1,.86.22l-.06,2.42a34.46,34.46,0,0,0,1.36,10.4h0a15.83,15.83,0,0,1,.53,6.12l-.87,7.78a88.44,88.44,0,0,0-.26,17.67,62,62,0,0,1,.18,7l-.1,4.62c-.16,7.05.62,4.09,2.29,10.93a4.71,4.71,0,0,1-.58,3.68h0a4.69,4.69,0,0,1-4,2.18l-9.76,0a4.57,4.57,0,0,1-3.21-2h0a2.81,2.81,0,0,1-.37-2.39c3.84-13.13,3.6-12.4,2.61-26.37h0a97.69,97.69,0,0,1,.12-15.3l.35-4.06a59.39,59.39,0,0,0-.31-12.92Z" transform="translate(-8.89 -64.32)" style="fill:#50e6ff"/><path d="M121.16,193.58l-3.7-.18a4.51,4.51,0,0,0,2,.75l9.76,0a4.69,4.69,0,0,0,4.55-5.86c-1.67-6.84-2.45-3.88-2.29-10.93l.1-4.62a62,62,0,0,0-.18-7,88.44,88.44,0,0,1,.26-17.67l.87-7.78a15.83,15.83,0,0,0-.53-6.12,34.46,34.46,0,0,1-1.36-10.4l.06-2.42,0,0a.73.73,0,0,0-.84-.2,18.6,18.6,0,0,1-2.09,1.13,4,4,0,0,1-.59.18,23.41,23.41,0,0,0,.33,7c.5,2.69,2.28,5.88,2.33,9.49.08,4.46-1.35,9.56-1.51,14.8-.2,6.63-.05,13.59-.17,20.1-.19,9.44,1.34,8.24,1.42,13.27C129.26,190.84,125,193.76,121.16,193.58Z" transform="translate(-8.89 -64.32)" style="fill:#a4ecff"/></g><path d="M63.33,115.6l1.85-.87a29.81,29.81,0,0,0,5.43-3.3l2-1.5" transform="translate(-8.89 -64.32)" style="fill:none;stroke:#3f321f;stroke-linecap:round;stroke-linejoin:round;stroke-width:2px"/><path d="M131.57,115.6l-1.85-.87a29.81,29.81,0,0,1-5.43-3.3l-2-1.5" transform="translate(-8.89 -64.32)" style="fill:none;stroke:#3f321f;stroke-linecap:round;stroke-linejoin:round;stroke-width:2px"/></svg>