<svg id="Livello_3" data-name="Livello 3" xmlns="http://www.w3.org/2000/svg" viewBox="0 0 187.93 110.34"><path d="M144.51,125.76c-3.17-10.79-2.51-15.88-4.59-26.23-2.27-11.23-10.57-17.72-18.77-21.62-9-4.28-21.38-4.47-23.76-4.47s-14.76.19-23.75,4.47c-8.2,3.9-16.51,10.39-18.77,21.62-2.09,10.35-1.43,15.44-4.59,26.23-2,6.7-.15,21.9,12.6,30.49C69.45,160.67,83.42,168,97.39,168s27.94-7.32,34.51-11.74C144.65,147.66,146.47,132.46,144.51,125.76Z" transform="translate(-8.52 -65.77)" style="fill:#ffdf1f;stroke:#3f321f;stroke-linecap:round;stroke-miterlimit:10;stroke-width:5px;stroke-dasharray:210,10,0,10,1000"/><path d="M69.18,111.47a7.47,7.47,0,1,0,10.58,6.35Z" transform="translate(-8.52 -65.77)" style="fill:#3f321f"/><path d="M71.64,112.94a3.16,3.16,0,1,0,4.52,2.84s0-.08,0-.13Z" transform="translate(-8.52 -65.77)" style="fill:#fff"/><path d="M127.07,111.5l-10.64,6.4a7.47,7.47,0,1,0,10.64-6.4Z" transform="translate(-8.52 -65.77)" style="fill:#3f321f"/><path d="M124.62,113,120,115.73a.43.43,0,0,1,0,0,3.16,3.16,0,1,0,4.59-2.8Z" transform="translate(-8.52 -65.77)" style="fill:#fff"/><path d="M83.17,133.63c.65.94,3.08,2.75,7.18,3.08,3.48.29,6.85-1.14,7.59-2.8a.16.16,0,0,1,.29,0c.74,1.66,4.12,3.09,7.6,2.8,4.1-.33,6.52-2.14,7.17-3.08" transform="translate(-8.52 -65.77)" style="fill:none;stroke:#3f321f;stroke-linecap:round;stroke-linejoin:round;stroke-width:3px"/><path d="M98.09,129.83" transform="translate(-8.52 -65.77)" style="fill:none;stroke:#2a2b2d;stroke-linecap:round;stroke-miterlimit:10;stroke-width:3px"/><path d="M98.08,128.77c-1.39,0-3.34-1.94-2.6-3.13s4.41-1.25,5.19,0S99.47,128.77,98.08,128.77Z" transform="translate(-8.52 -65.77)" style="fill:#493c2a;stroke:#3f321f;stroke-linejoin:round;stroke-width:3px"/><path d="M105.83,136.71c-3.48.29-6.86-1.14-7.6-2.8a.16.16,0,0,0-.29,0c-.74,1.66-4.11,3.09-7.59,2.8a13.28,13.28,0,0,1-3.18-.62c0,.22,0,.44,0,.67,0,7.72,2.76,14,10.93,14s10.93-6.27,10.93-14c0-.23,0-.45,0-.67A13.29,13.29,0,0,1,105.83,136.71Z" transform="translate(-8.52 -65.77)" style="fill:#493c2a;stroke:#3f321f;stroke-linejoin:round;stroke-width:3px"/><path d="M98.09,129.83" transform="translate(-8.52 -65.77)" style="fill:none;stroke:#2a2b2d;stroke-linecap:round;stroke-linejoin:round;stroke-width:3px"/><path d="M98.09,140.24c-5.08,0-8,1.09-9.44,2.81,0,5.36,4.58,7.7,9.44,7.7s9.43-2.21,9.43-7.7C106.56,141.27,103.16,140.24,98.09,140.24Z" transform="translate(-8.52 -65.77)" style="fill:#e77374;stroke:#3f321f;stroke-linejoin:round;stroke-width:2px"/><path d="M133.36,152a10.53,10.53,0,1,1,9.12-17.11A28.41,28.41,0,0,1,133.36,152Z" transform="translate(-8.52 -65.77)" style="fill:#ef3a3a"/><path d="M61.44,152.08A28.43,28.43,0,0,1,52.32,135a10.53,10.53,0,1,1,9.12,17.12Z" transform="translate(-8.52 -65.77)" style="fill:#ef3a3a"/><path d="M136.14,96.4a123.51,123.51,0,0,0,47.45-21.05,2,2,0,0,0-.76-3.31c-6.69-2.23-22.05-6.19-36.72-1.77-15,4.51-22.12,12.2-22.12,12.2" transform="translate(-8.52 -65.77)" style="fill:#ffdf1f;stroke:#3f321f;stroke-linecap:round;stroke-miterlimit:10;stroke-width:5px"/><path d="M182.83,72l-1.43-.46-.9.68a120,120,0,0,1-44.91,20.5,1.24,1.24,0,0,0-.72,1.95l1.27,1.69a123.51,123.51,0,0,0,47.45-21.05A2,2,0,0,0,182.83,72Z" transform="translate(-8.52 -65.77)" style="fill:#3f321f;opacity:0.15"/><path d="M183.59,75.35a121,121,0,0,1-12.79,8.16c-2-3.61-6.11-9.42-14-15.12a71,71,0,0,1,26,3.65A2,2,0,0,1,183.59,75.35Z" transform="translate(-8.52 -65.77)" style="fill:#3f321f"/><g style="opacity:0.5"><path d="M131,100.11c-2.82-7.28-8.76-11.45-14.55-14" transform="translate(-8.52 -65.77)" style="fill:none;stroke:#fff;stroke-linecap:round;stroke-miterlimit:10;stroke-width:4px"/><path d="M133.39,110c-.26-1.49-.54-3.06-.93-4.8" transform="translate(-8.52 -65.77)" style="fill:none;stroke:#fff;stroke-linecap:round;stroke-miterlimit:10;stroke-width:4px"/></g><path d="M97.39,160.11" transform="translate(-8.52 -65.77)" style="fill:none;stroke:#2a2b2d;stroke-miterlimit:10;stroke-width:5px"/><path d="M138.09,150.07c-6.58,4.42-20.55,11.74-34.52,11.74s-27.93-7.32-34.51-11.74c-12.75-8.59-14.57-23.79-12.6-30.49,3.17-10.79,2.5-15.88,4.59-26.23a27.2,27.2,0,0,1,1.73-5.5c-.26-.14-.81-.46-1.59-1a26.74,26.74,0,0,0-6.32,12.64c-2.09,10.35-1.43,15.44-4.59,26.23-2,6.7-.15,21.9,12.6,30.49C69.45,160.67,83.42,168,97.39,168s27.94-7.32,34.51-11.74a29.07,29.07,0,0,0,7.26-6.94C138.81,149.57,138.45,149.82,138.09,150.07Z" transform="translate(-8.52 -65.77)" style="fill:#3f321f;opacity:0.15"/><path d="M65.69,97a123.72,123.72,0,0,1-51.86-2.24,2,2,0,0,1-.51-3.36c5.42-4.52,18.26-13.83,33.54-15.08,15.6-1.29,25,3.27,25,3.27" transform="translate(-8.52 -65.77)" style="fill:#ffdf1f;stroke:#3f321f;stroke-linecap:round;stroke-miterlimit:10;stroke-width:5px"/><path d="M13.32,91.36c.36-.29.75-.62,1.17-1l1.09.3a120.09,120.09,0,0,0,49.3,2.66,1.24,1.24,0,0,1,1.38,1.55l-.57,2a123.72,123.72,0,0,1-51.86-2.24A2,2,0,0,1,13.32,91.36Z" transform="translate(-8.52 -65.77)" style="fill:#3f321f;opacity:0.15"/><path d="M13.84,94.72a120.24,120.24,0,0,0,14.88,2.91c.54-4.09,2.24-11,7.47-19.18A71.13,71.13,0,0,0,13.32,91.36,2,2,0,0,0,13.84,94.72Z" transform="translate(-8.52 -65.77)" style="fill:#3f321f"/><path d="M154.74,171.69a1.73,1.73,0,0,0,3.33-.95L156.71,166l4,.75a1.73,1.73,0,0,0,.63-3.4l-6.53-1.21-8.69-4.81-1.94-6.75a1.72,1.72,0,0,0-1.35-1.22L136,148.06a1.73,1.73,0,1,0-.63,3.4l5.86,1.09,1.81,6.3,1.48,10.7a1.73,1.73,0,1,0,3.43-.47l-1-7.41,5.92,3.27Z" transform="translate(-8.52 -65.77)" style="fill:#fabe2c"/><path d="M191.09,127.62l-4.32,5.71-6.49,1.87-9.8-1.83a1.73,1.73,0,0,0-1.83.87l-5.1,9.21L158.43,147l-4.66,3.2-1.23-4.29-.24-.84a1.75,1.75,0,0,0-1.35-1.22l-17.71-3.55a1.73,1.73,0,1,0-.64,3.4L149.27,147l1.84,6.4a2,2,0,0,0,.62.9l6.16,4.67a1.83,1.83,0,0,0,.73.32l5.75,1.07,1.84,6.41a1.72,1.72,0,0,0,1.35,1.22l5.1,1-.95,5.1a1.73,1.73,0,1,0,3.4.63l.95-5.1,4.7.88,6,4.44a1.75,1.75,0,0,0,2.43-.34,1.72,1.72,0,0,0-.34-2.42l-6.28-4.69a1.78,1.78,0,0,0-.73-.32l-12.55-2.33-1.5-5.21,3-2.07a1.73,1.73,0,1,0-2-2.85L165.35,157l-5.69-1-3.93-3,7.51-5.15,2-1.39,11.84,2.21.54,1.86,1.3,4.54a1.73,1.73,0,0,0,1.35,1.23l10.31,1.92a1.73,1.73,0,0,0,.64-3.41L182,153.1l-.53-1.86-.83-2.88,5.77-1.66a1.73,1.73,0,1,0-.95-3.33l-7.05,2-10.84-2,3.54-6.38,9,1.67a1.67,1.67,0,0,0,.8,0l7-2,6.51,1.21a1.73,1.73,0,1,0,.63-3.4l-4.16-.77,3-3.94a1.73,1.73,0,0,0-2.76-2.09Z" transform="translate(-8.52 -65.77)" style="fill:#fabe2c"/><path d="M160.4,140.29a1.71,1.71,0,0,0-1.38-2l-3.63-.68,6.13-6.29,6.6-1.9,6.4,1.2a1.73,1.73,0,0,0,.63-3.41l-5.1-.94.31-1.7a1.73,1.73,0,0,0-3.4-.64l-.43,2.35-6.41,1.84a1.75,1.75,0,0,0-.76.46l-8.05,8.27-4.19-.78.81-4.4,3.45-2.36a1.73,1.73,0,0,0-2-2.85l-4,2.77a1.76,1.76,0,0,0-.73,1.11l-.95,5.1-5.21-1a1.73,1.73,0,1,0-.63,3.4l20.51,3.82a1.74,1.74,0,0,0,2-1.39Z" transform="translate(-8.52 -65.77)" style="fill:#fabe2c"/><path d="M33.58,129.74a1.37,1.37,0,0,0-1.95,1.93l2.76,2.79-3.1,1a1.37,1.37,0,0,0,.85,2.61l5-1.65,7.9,0,3.92,4a1.39,1.39,0,0,0,1.41.34l5.3-1.74a1.37,1.37,0,1,0-.85-2.61l-4.5,1.48-3.67-3.7-5.12-6.89a1.37,1.37,0,1,0-2.2,1.64l3.54,4.77-5.37,0Z" transform="translate(-8.52 -65.77)" style="fill:#fabe2c"/><path d="M25.1,174.31l.83-5.62,3.8-3.78,7.53-2.47a1.38,1.38,0,0,0,.94-1.3l0-8.36,2.23-4.41,2-4,2.5,2.52.49.49a1.38,1.38,0,0,0,1.4.34l13.7-4.29a1.38,1.38,0,0,0,.87-1.74,1.36,1.36,0,0,0-1.73-.87l-12.89,4-3.73-3.76a1.75,1.75,0,0,0-.77-.39l-6.08-.89a1.49,1.49,0,0,0-.63.05l-4.41,1.45-3.73-3.76a1.35,1.35,0,0,0-1.4-.33l-3.92,1.28-1.29-3.91a1.37,1.37,0,1,0-2.61.86l1.29,3.91-3.61,1.19-5.84-.82a1.37,1.37,0,1,0-.4,2.72l6.16.86a1.49,1.49,0,0,0,.63,0l9.64-3.17,3,3.06-1.31,2.58A1.37,1.37,0,1,0,30.29,147l1.5-3,4.37-1.44,3.87.57-3.26,6.46-.88,1.74-9.09,3-1.08-1.09-2.65-2.67a1.38,1.38,0,0,0-1.4-.34l-7.92,2.6a1.37,1.37,0,1,0,.86,2.61l7.11-2.33,1.08,1.09,1.68,1.69-3.39,3.36a1.38,1.38,0,1,0,1.94,2l4.13-4.1,8.32-2.73,0,5.79-6.89,2.26a1.36,1.36,0,0,0-.54.33l-4.13,4.1-5,1.64a1.37,1.37,0,1,0,.86,2.61L23,170l-.57,3.88a1.37,1.37,0,0,0,2.72.4Z" transform="translate(-8.52 -65.77)" style="fill:#fabe2c"/></svg>