<svg xmlns="http://www.w3.org/2000/svg" viewBox="0 0 841.9 595.3">
    <svg width="418" height="196" viewBox="0 0 418 196" fill="none" xmlns="http://www.w3.org/2000/svg">
        <path d="M58 61.7C57.2 62 56.9 62.9 57.1 63.7C64.5 88.9 64.4 88.3 65.4 88.7C65.9 88.9 66.5 88.8 66.9 88.5C73.3 84.2 79.7 78.4 77.9 68.8C76.5 61.6 67.5 57.3 58 61.7ZM68.1 80.4C64.8 69.6 66.7 76.2 63.6 65.8C73.4 64.1 75.5 73.8 68.1 80.4Z" fill="#4C7ACC"/>
        <path d="M226.2 56.4C217.2 48.6 203.4 55.6 203.9 67.3C204.2 72.7 208.7 79 210.8 76.6L226.3 58.8C227 58.1 226.9 57 226.2 56.4ZM209.8 70.8C205.8 63.6 213 55.6 220.5 58.5L209.8 70.8Z" fill="#4C7ACC"/>
        <path d="M340 80.2C335.7 85.7 325.9 82.7 326.2 75.9C326.3 72.8 328.5 72.2 327.2 70.6C326.7 70 326 69.8 325.3 70.1C313.1 75.1 317.2 92.3 330.5 92.3C337.2 92.3 342.6 87.5 343 81.2C343.1 79.7 341 78.9 340 80.2Z" fill="#4C7ACC"/>
        <path d="M126.7 86C122.6 91.6 112.7 89 112.7 82.3C112.7 79.2 114.8 78.5 113.5 77C113 76.4 112.2 76.3 111.6 76.6C99.9 82 104.1 98.6 117.2 98.6C124.1 98.6 129.6 93.5 129.8 87C129.8 85.4 127.7 84.7 126.7 86Z" fill="#4C7ACC"/>
        <path d="M416 51.9C384.6 44.3 386.2 44.4 385.3 44.9C384.4 45.5 384.6 45.7 381.8 57.2C379 43.1 379.3 43 377.9 42.7L342.4 34.9C341.4 34.7 340.4 35.5 340.4 36.5C340.6 55.8 340.2 55.8 341.9 56.1L346.4 57.1L346 61C345.9 60.9 345.9 60.9 345.7 60.8C335.6 55.5 322.9 57.2 313.5 64.1L307.9 28.8C307.8 28 307.1 27.4 306.3 27.4H283.5C282.7 27.4 282 28 281.9 28.8L281.4 31.6C254.3 31.6 254.5 31.1 254.2 33L251.3 50.5L249.1 47.7C242.6 39.7 233.2 35.2 222.6 35C245.5 22.7 244.5 23.5 244.7 22.5C244.8 22 244.7 21.6 244.5 21.2L230.7 0.699997C230.4 0.299997 229.9 0 229.4 0C228.9 0 228.4 0.200006 228 0.600006C199.5 33.5 200.2 31.8 201.4 33.3L205.5 38.3C201.1 40.1 197.1 42.6 193.8 45.8L170.6 25.2C170.2 24.9 169.7 24.7 169.2 24.8C168.7 24.9 168.3 25.2 168 25.7L160.3 40.4L160.6 26.8C160.6 26.3 160.4 25.8 159.9 25.4C159.5 25.1 158.9 25 158.4 25.1C120.6 37.2 121.9 36.3 121.9 38C122.9 59.8 121 58 129.4 55.8L130.4 66.3C120.1 61.7 107.7 63.8 98.5 70.5C105.2 41 70.8 17.3 22.6 37.9C12.7 42.1 7.49999 45.6 1.59999 49.4C0.799989 49.9 0.599989 50.9 1.09999 51.7C18.3 80.8 17.3 79 18.4 80.9C18.8 81.6 19.8 81.9 20.6 81.5L26.4 78.7C59.6 152.9 57.4 149.4 59.4 148.8L85.4 140.5C86.2 140.2 86.7 139.4 86.5 138.5L76.8 101.3C79.2 99.5 81.4 97.7 83.5 95.7C80.1 123.4 113 138.3 135.2 116.6C136.1 126.8 135.7 129.4 138.1 129L162.3 125.4C163.1 125.3 163.7 124.6 163.7 123.8V100.7C222.7 129.9 218.9 128.3 220 127.7C220.5 127.4 220.8 126.9 220.8 126.3V101.7C233.6 100.6 243.2 94.6 244.2 94.1C242.2 106.4 241.1 108.7 243.5 109C272.7 113.6 271.3 113.7 272.2 113C272.6 112.7 272.8 112.3 272.9 111.9L274.3 102.5C283.2 118.9 281.5 118.9 287.3 107.9C289.1 123.1 288.7 123.4 290.3 123.7C290.5 123.7 321.7 129.3 322 129.3C323 129.3 323.7 128.5 323.7 127.6C323.7 127.4 323.7 127.2 323.6 127.1L322.2 117.9C323.2 117.9 330.9 119.2 340.3 114.5L339.1 125.4C339 126.3 339.6 127.1 340.5 127.2L362.1 130.3L362.3 138.6C362.3 139.3 362.8 139.9 363.5 140.2L385 147C387.2 147.7 385 152.3 417.5 54.2C417.5 53.1 416.9 52.1 416 51.9ZM250.1 56.7L248.2 68.7L243.2 64.2L250.1 56.7ZM228.1 9.5L236.6 21L212.4 33L210.7 30.5L228.1 9.5ZM69 97.4C67.6 98.3 67.5 96.4 77.6 135.1L62 140.1C29.4 67.3 30.7 68.2 28.4 69.3C27.1 69.9 26.3 70.3 22 72.4L10.4 52.8C39.1 34.5 67.6 35.5 78.6 42.8C78.6 42.8 78.7 42.8 78.7 42.9C101.8 55.9 91.4 83 69 97.4ZM134.1 107.2C121.5 124.9 95.8 124.2 90.4 104.9C86.9 92.5 94.9 77.7 108.2 72C132.1 61.9 149.2 86.5 134.1 107.2ZM157.6 90.6C156.5 91.3 156.8 89.8 156.9 119L142.2 121L141.2 108.8C148.4 96.5 147.9 81.4 138.1 71.7C136.1 47.8 136.5 48.2 135.5 47.5C134.5 46.8 133.7 47.4 129.5 48.5L129.2 42.2L152.7 35.2L153.9 54.8C154 56.4 156 56.9 156.9 55.7L171.5 35.2L188.4 51.3C164.7 76.3 165.7 74.8 166 76C166.1 76.5 166.5 77 167 77.2L187 85.1C191.6 93.9 201.1 100.6 213.5 101.8V117.8C155.1 88.4 158.7 89.9 157.6 90.6ZM184 76.6L176.1 73.6L183.4 66.5C183.2 69.7 183.3 73.2 184 76.6ZM191.3 76.3C184.2 46.1 225.8 31.1 243.2 52.4C221 76.1 221.4 75 222.2 76.5C222.9 77.8 224.2 77.3 225.7 77C228.9 76.2 231.8 74.7 233.7 73L233.9 72.9C235 72 236 70.9 237.3 69.4L249.6 80.5C231.3 99.3 197 100.2 191.3 76.3ZM295.7 117.5C291.2 87.9 291.8 88.5 290 88.3C288.3 88.1 288.5 88.6 283.3 102.3L274.6 83.6C273.9 82.1 271.7 82.4 271.4 84L268 106L249.9 102.8L252.4 87.7C253.1 87.1 253.8 86.4 254.4 85.7C261.2 78.7 261.2 80.5 254.6 74.5L260.7 38.4H279C282.1 55.1 281.7 55.6 283.5 55.6C284.3 55.6 285 55 285.1 54.2L288.6 34.4H301.7L307.1 69.7C292.1 86.7 297.9 109.3 314.2 115.8L314.9 120.4L295.7 117.5ZM340.8 106.4C319.1 121.8 295.8 101.2 308.6 78.9C320.4 58.7 348.1 59.8 352.5 78.9C355 89.2 349.6 100.2 340.8 106.4ZM381.6 138.5L368.2 134.5L367.4 101.8C367.4 100.9 366.7 100.2 365.9 100.2C365.1 100.1 364.3 100.7 364.1 101.6L360.3 123.2L345.7 120.9L346.7 109.9C361.8 97.2 363.4 76 351 64.7L352.1 53.2C352.3 51.4 350.6 51.4 346.7 50.3L347.1 43.4L372.3 48.5C379.7 83.8 379 82.7 380.8 82.8C381.5 82.8 382.3 82.3 382.4 81.5L389.4 52.7L408.5 56.9L381.6 138.5Z" fill="#4C7ACC"/>
        <path d="M236.5 21L228.1 9.5L210.7 30.4L212.3 32.9L236.5 21Z" fill="#F4BD25"/>
        <path d="M233.7 72.9999C231 75.3999 227.5 76.6999 224 77.3999C222.4 77.6999 221.4 75.7999 222.5 74.5999L243.3 52.4999C226 31.1999 184.3 46.0999 191.4 76.3999C197 99.8999 231.1 99.6999 249.6 80.4999L237.3 69.3999C235.6 71.2999 234.7 72.0999 233.7 72.9999ZM208.4 76.5999C199.3 68.3999 205.1 53.0999 217.5 53.0999C222.1 53.0999 228.6 56.2999 226.5 58.6999C210.5 76.9999 210.2 78.2999 208.4 76.5999Z" fill="#F2D422"/>
        <path d="M210.9 44.1C196.5 48.6 187.8 61.1 191.3 76.3C196.1 96.4 221.9 99.3 241.1 87.3C201.4 101.5 186.9 60.4 210.9 44.1Z" fill="#F4BD25"/>
        <path d="M307.2 69.8L301.8 34.5H288.7C285 55.4 285.4 55.7 283.5 55.7C282.7 55.7 282 55.1 281.9 54.3L279 38.4H260.7L254.6 74.5C261.3 80.5 261.2 78.7 254.4 85.7C253.7 86.4 253.1 87 252.4 87.7L249.9 102.8L268 106L271.5 84.1C271.8 82.5 274 82.2 274.7 83.7L283.4 102.4C288.7 88.8 288.4 88.3 290.1 88.4C290.9 88.5 291.5 89.1 291.6 89.8L295.8 117.6L315.1 120.5L314.4 115.9C298.2 109.4 292.1 87 307.2 69.8Z" fill="#F2D422"/>
        <path d="M259.6 104.5L271.5 38.5H260.8L254.7 74.6C261.4 80.6 261.3 78.8 254.5 85.8C253.8 86.5 253.2 87.1 252.5 87.8L250 102.9L259.6 104.5Z" fill="#F4BD25"/>
        <path d="M380.9 82.7C379.1 82.7 379.8 83.7 372.4 48.4L347.2 43.3L346.8 50.2C350.6 51.2 352.4 51.3001 352.2 53.1001L351.1 64.6001C363.6 76.0001 361.8 97.2001 346.8 109.8L345.8 120.8L360.4 123.1L364.2 101.5C364.5 99.5 367.5 99.7 367.5 101.7L368.3 134.4L381.7 138.4L408.7 56.7L389.6 52.5C382.1 83.1 382.7 82.7 380.9 82.7Z" fill="#F2D422"/>
        <path d="M347.1 43.4L346.7 50.3C350.5 51.3 352.3 51.4 352.1 53.2L351 64.7C363.5 76.1 361.7 97.3 346.7 109.9L345.7 120.9L360.3 123.2L365.6 47.1L347.1 43.4Z" fill="#F4BD25"/>
        <path d="M352.5 79C348.1 59.9 320.4 58.8 308.6 79C295.8 101.3 319.1 121.9 340.8 106.5C349.6 100.2 355 89.2 352.5 79ZM329.9 92.4C316.8 91.8 313.3 75.1 325.2 70.2C325.9 69.9 326.7 70.1 327.1 70.7C328.4 72.3 326.2 72.9 326.1 76C325.8 82.7 335.6 85.7 339.9 80.3C340.9 79 343 79.8 342.9 81.4C342.6 88 336.7 92.7 329.9 92.4Z" fill="#F2D422"/>
        <path d="M186.9 84.9C165.4 76.4 166.2 77 165.9 75.8C165.6 74.6 164.5 76.2 188.3 51.1L171.4 35C155.8 56.9 156.5 56.6 155 56.1C153.5 55.7 153.9 56.2 152.6 35L129.1 42L129.4 48.3L134.1 47.1C135.1 46.8 136.1 47.5 136.2 48.6L138.1 71.6C148 81.4 148.3 96.6 141.2 108.7L142.2 120.9L156.9 118.9C156.8 89.7 156.5 91.2 157.6 90.5C158.1 90.2 158.7 90.2 159.2 90.4L213.4 117.5V101.5C201 100.4 191.6 93.8 186.9 84.9Z" fill="#F2D422"/>
        <path d="M147.5 36.6L129.1 42.1L129.4 48.4C133.7 47.3 134.5 46.8 135.4 47.4C136.4 48.1 136 47.7 138 71.6C147.9 81.4 148.2 96.6 141.1 108.7L142.1 120.9L150.7 119.7L147.5 36.6Z" fill="#F4BD25"/>
        <path d="M78.8 42.9C78.7 42.9 78.7 42.8 78.8 42.9C67.7 35.6 39.2 34.5 10.5 52.8L22 72.4C28.1 69.4 29.8 68.2 30.6 70.1L62 140L77.6 135C67.6 96.6 67.6 98.3 69 97.3C91.5 82.9 101.8 55.9 78.8 42.9ZM66.9 88.4C66 89 64.7 88.6 64.4 87.5C56.6 62.3 56.2 62.4 58 61.6C60.5 60.4 63.2 59.8 65.7 59.8C71.9 59.8 76.9 63.4 77.9 68.6C79.6 78.4 73.3 84.1 66.9 88.4Z" fill="#F2D422"/>
        <path d="M35 56.1C33.5 56.8 32.6 57.3 27.6 59.7L20.3 47.4C16.8 49.1 13.5 50.9 10.5 52.8L22 72.4C27.8 69.5 29.7 68.1 30.6 70.1L62 140L73.2 136.4C35.9 53.1 37.6 54.8 35 56.1Z" fill="#F4BD25"/>
        <path d="M108.2 71.9C94.9 77.6 86.9 92.4 90.4 104.8C95.9 124.2 121.6 124.7 134.1 107.1C149.2 86.4 132 61.9 108.2 71.9ZM117.2 98.6C104.1 98.6 99.9 82.1 111.6 76.6C112.3 76.3 113.1 76.5 113.5 77C114.8 78.5 112.7 79.2 112.7 82.3C112.7 89 122.6 91.6 126.7 86C127.7 84.7 129.7 85.4 129.7 87C129.6 93.5 124.1 98.6 117.2 98.6Z" fill="#F2D422"/>
        <path d="M99.4 101.9C96.1 90.1 103.1 76.2 115.2 70C98.5 72.4 86.2 90 90.4 104.8C94.2 118.2 109 124 123.1 116.7C111.6 118.4 102.3 111.9 99.4 101.9Z" fill="#F4BD25"/>
        <path d="M337.2 108.6C314.4 110.7 305 82.3 325 65.5C318.2 67.7 312.4 72.6 308.7 78.9C297.1 99 316.3 119.4 337.2 108.6Z" fill="#F4BD25"/>
        <path d="M108.8 135.3H91.7C90.5 135.3 89.6 136.3 89.6 137.4C89.6 138.6 90.6 139.5 91.7 139.5H98.1V145.8C93.2 146.8 89.6 151.1 89.6 156.3C89.6 162.2 94.4 167 100.3 167C106.2 167 111 162.2 111 156.3C111 151.1 107.3 146.8 102.5 145.8V139.5H108.9C110.1 139.5 111 138.5 111 137.4C111 136.3 110 135.3 108.8 135.3ZM106.7 156.3C106.7 159.8 103.8 162.7 100.3 162.7C96.8 162.7 93.9 159.8 93.9 156.3C93.9 152.8 96.8 149.9 100.3 149.9C103.8 149.9 106.7 152.8 106.7 156.3Z" fill="#CC4E4E"/>
        <path d="M100.3 158.4C101.46 158.4 102.4 157.46 102.4 156.3C102.4 155.14 101.46 154.2 100.3 154.2C99.1402 154.2 98.2 155.14 98.2 156.3C98.2 157.46 99.1402 158.4 100.3 158.4Z" fill="#CC4E4E"/>
        <path d="M131.1 153.4C132.315 153.4 133.3 152.415 133.3 151.2C133.3 149.985 132.315 149 131.1 149C129.885 149 128.9 149.985 128.9 151.2C128.9 152.415 129.885 153.4 131.1 153.4Z" fill="#CC4E4E"/>
        <path d="M131 135.3C122.3 135.3 115.2 142.4 115.2 151.1C115.2 159.8 122.2 167 131 167C139.7 167 146.8 159.9 146.8 151.2C146.8 142.5 139.7 135.3 131 135.3ZM125.8 151.1C125.8 148.2 128.2 145.8 131.1 145.8C134 145.8 136.4 148.2 136.4 151.1C136.4 154 134 156.4 131.1 156.4C128.2 156.4 125.8 154.1 125.8 151.1ZM132.9 162.4V159.7C136.9 158.9 139.9 155.3 139.9 151.1C139.9 146.2 136 142.3 131.1 142.3C126.2 142.3 122.3 146.2 122.3 151.1C122.3 155.4 125.3 158.9 129.3 159.7V162.4C123.7 161.6 119.4 156.9 119.4 151.1C119.4 144.8 124.5 139.7 130.8 139.7C137.1 139.7 142.2 144.8 142.2 151.1C142.4 156.8 138.3 161.5 132.9 162.4Z" fill="#CC4E4E"/>
        <path d="M155.5 139L151.7 135.2C150.9 134.4 149.5 134.4 148.7 135.2C147.9 136 147.9 137.4 148.7 138.2L152.5 142C151.3 143.9 150.7 146 150.7 148.2V165C150.7 166.1 151.6 167 152.7 167C153.8 167 154.7 166.1 154.7 165V156.1C158.7 159.4 164.8 159.2 168.6 155.7C173.1 151.6 173.2 144.6 168.9 140.3C165.3 136.7 159.7 136.2 155.5 139ZM166 152.4C163.5 154.9 159.4 154.9 156.9 152.4C154.4 149.9 154.4 145.8 156.9 143.3C159.4 140.8 163.5 140.8 166 143.3C168.5 145.8 168.5 149.9 166 152.4Z" fill="#CC4E4E"/>
        <path d="M159.9 146.4C159.1 147.2 159.1 148.6 159.9 149.4C160.7 150.2 162.1 150.2 162.9 149.4C163.7 148.6 163.7 147.2 162.9 146.4C162.1 145.5 160.8 145.5 159.9 146.4Z" fill="#CC4E4E"/>
        <path d="M211 135.3H193.9C192.7 135.3 191.8 136.3 191.8 137.4C191.8 138.6 192.8 139.5 193.9 139.5H200.3V145.8C195.4 146.8 191.8 151.1 191.8 156.3C191.8 162.2 196.6 167 202.5 167C208.4 167 213.2 162.2 213.2 156.3C213.2 151.1 209.5 146.8 204.7 145.8V139.5H211.1C212.3 139.5 213.2 138.5 213.2 137.4C213.1 136.3 212.2 135.3 211 135.3ZM208.9 156.3C208.9 159.8 206 162.7 202.5 162.7C199 162.7 196.1 159.8 196.1 156.3C196.1 152.8 199 149.9 202.5 149.9C206 149.9 208.9 152.8 208.9 156.3Z" fill="#CC4E4E"/>
        <path d="M200.3 156.3C200.3 157.5 201.3 158.4 202.4 158.4C203.6 158.4 204.5 157.4 204.5 156.3C204.5 155.1 203.5 154.2 202.4 154.2C201.3 154.2 200.3 155.1 200.3 156.3Z" fill="#CC4E4E"/>
        <path d="M236.7 151.9C239.5 147.7 239 141.9 235.1 138.2C231.1 134.4 224.6 134.4 220.5 138.1C218.2 140.2 217.1 143 217.1 145.9V165C217.1 166.1 218 167 219.1 167C220.2 167 221.1 166.1 221.1 165V154.3C224.7 157.3 229.9 157.5 233.7 154.9L237.5 158.7C238.3 159.5 239.7 159.5 240.5 158.7C241.3 157.9 241.3 156.5 240.5 155.7L236.7 151.9ZM232.3 150.5C229.8 153 225.7 153 223.2 150.5C220.7 148 220.7 143.9 223.2 141.4C225.7 138.9 229.8 138.9 232.3 141.4C234.8 144 234.8 148 232.3 150.5Z" fill="#CC4E4E"/>
        <path d="M226.3 144.5C225.5 145.3 225.5 146.7 226.3 147.5C227.1 148.3 228.5 148.3 229.3 147.5C230.1 146.7 230.1 145.3 229.3 144.5C228.5 143.6 227.1 143.6 226.3 144.5Z" fill="#CC4E4E"/>
        <path d="M261.3 153C262.3 153 263.1 152.2 263.1 151.2C263.1 150.2 262.3 149.4 261.3 149.4C260.3 149.4 259.5 150.2 259.5 151.2C259.5 152.1 260.3 153 261.3 153Z" fill="#CC4E4E"/>
        <path d="M275.1 146.3C273.8 146.3 272.8 147.5 273 148.8C273.1 149.5 273.2 150.3 273.2 151.1C273.1 154.7 271.3 157.9 268.7 160.1L267.4 157.9C269.3 156.2 270.5 153.7 270.4 150.9C270.3 146.2 266.4 142.3 261.7 142.1C256.5 141.9 252.2 146 252.2 151.2C252.2 153.7 253.2 156 254.9 157.7L253.6 159.9C251.1 157.7 249.4 154.5 249.4 150.9C249.4 150.2 249.5 149.5 249.6 148.9C249.8 147.6 248.8 146.4 247.5 146.4C246.5 146.4 245.6 147.1 245.4 148.1C245.2 149 245.2 149.9 245.2 150.9C245.2 160.2 253.1 167.7 262.6 167C269.6 166.5 275.5 161.4 277.1 154.5C277.6 152.3 277.6 150.1 277.3 148.1C277 147.1 276.2 146.3 275.1 146.3ZM265.9 161.7C265 162.1 264.1 162.4 263.1 162.5V160C263.6 159.9 264.2 159.7 264.7 159.5L265.9 161.7ZM261.3 145.7C264.3 145.7 266.8 148.1 266.8 151.2C266.8 154.2 264.4 156.7 261.3 156.7C258.3 156.7 255.8 154.3 255.8 151.2C255.8 148.1 258.3 145.7 261.3 145.7ZM257.5 159.4C258.1 159.7 258.8 159.9 259.5 160.1V162.6C258.4 162.4 257.3 162.1 256.3 161.6L257.5 159.4Z" fill="#CC4E4E"/>
        <path d="M295.7 157C295.7 158 296.5 158.8 297.5 158.8C298.5 158.8 299.3 158 299.3 157C299.3 156 298.5 155.2 297.5 155.2C296.5 155.2 295.7 156 295.7 157Z" fill="#CC4E4E"/>
        <path d="M313 144C313.8 143.2 313.8 142 313 141.2C312.2 140.4 311 140.4 310.2 141.2L307.5 143.9C304.5 141.6 300.7 140.3 296.6 140.5C293.2 140.7 290.1 142 287.5 143.9L284.6 141C283.8 140.2 282.6 140.2 281.8 141C281 141.8 281 143 281.8 143.8L284.7 146.7C282.7 149.2 281.4 152.4 281.3 155.8C281.1 159.5 282.1 162.9 284 165.7C284.4 166.3 285.1 166.7 285.8 166.7H285.9C287.6 166.7 288.6 164.8 287.6 163.3C286.3 161.4 285.6 159.1 285.6 156.6C285.7 150.8 290.1 145.9 295.7 145V145.1V148.2C291.5 149.1 288.3 152.9 288.4 157.4C288.5 162.1 292.4 166 297.1 166.2C302.3 166.4 306.6 162.3 306.6 157.1C306.6 152.7 303.5 149 299.3 148.2V145.1V145C305 145.9 309.4 150.8 309.4 156.7C309.4 159.1 308.7 161.4 307.4 163.3C306.4 164.7 307.5 166.6 309.2 166.6H309.3C310 166.6 310.7 166.2 311.1 165.6C312.8 163 313.8 160 313.8 156.6C313.8 152.8 312.5 149.4 310.4 146.6L313 144ZM303 157C303 160 300.6 162.5 297.5 162.5C294.5 162.5 292 160.1 292 157C292 154 294.4 151.5 297.5 151.5C300.5 151.6 303 154 303 157Z" fill="#CC4E4E"/>
        <path d="M322.2 139L318.4 135.2C317.6 134.4 316.2 134.4 315.4 135.2C314.6 136 314.6 137.4 315.4 138.2L319.2 142C318 143.9 317.4 146 317.4 148.2V165C317.4 166.1 318.3 167 319.4 167C320.5 167 321.4 166.1 321.4 165V156.1C325.4 159.4 331.5 159.2 335.3 155.7C339.8 151.6 339.9 144.6 335.6 140.3C332 136.7 326.3 136.2 322.2 139ZM332.6 152.4C330.1 154.9 326 154.9 323.5 152.4C321 149.9 321 145.8 323.5 143.3C326 140.8 330.1 140.8 332.6 143.3C335.1 145.8 335.1 149.9 332.6 152.4Z" fill="#CC4E4E"/>
        <path d="M326.6 146.4C325.8 147.2 325.8 148.6 326.6 149.4C327.4 150.2 328.8 150.2 329.6 149.4C330.4 148.6 330.4 147.2 329.6 146.4C328.8 145.5 327.4 145.5 326.6 146.4Z" fill="#CC4E4E"/>
        <path d="M351.4 149.9C350.7 150.6 350.7 151.8 351.4 152.5C352.1 153.2 353.3 153.2 354 152.5C354.7 151.8 354.7 150.6 354 149.9C353.3 149.2 352.1 149.2 351.4 149.9Z" fill="#CC4E4E"/>
        <path d="M363.7 159.6L362.5 158.4C362.5 158.4 362.5 158.4 362.5 158.3L360.3 156.1C360.4 156 360.5 155.8 360.6 155.7C360.6 155.7 360.6 155.7 360.6 155.6C362.6 152 362.1 147.4 358.9 144.5C355.8 141.6 351 141.3 347.6 143.6L345.6 141.6C347.6 140.1 350 139.3 352.6 139.3C353.5 139.3 354.4 139.4 355.2 139.6C355.8 139.7 356.5 139.6 357 139.1C358.1 138 357.6 136.2 356.1 135.9C355 135.6 353.8 135.5 352.6 135.5C348.3 135.5 344.4 137.2 341.6 140.1C340.8 140.9 340.8 142.1 341.6 142.8L343.1 144.3L345.1 146.3C345 146.4 344.9 146.6 344.8 146.7C344.8 146.7 344.8 146.7 344.8 146.8C342.8 150.4 343.3 155 346.5 157.9C349.6 160.8 354.4 161.1 357.8 158.8L359.8 160.8C357.8 162.2 355.4 163.1 352.8 163.1C351.9 163.1 351 163 350.2 162.8C349.6 162.7 348.9 162.8 348.4 163.3C347.3 164.4 347.8 166.2 349.3 166.5C350.4 166.8 351.6 166.9 352.8 166.9C357.1 166.9 361 165.2 363.8 162.4C364.5 161.6 364.5 160.4 363.7 159.6ZM356.9 154.6C356.8 154.7 356.7 154.9 356.5 155C354.4 157.1 350.9 157.1 348.8 155C346.8 153 346.7 149.9 348.4 147.7C348.5 147.6 348.6 147.4 348.8 147.3C350.9 145.2 354.4 145.2 356.5 147.3C358.5 149.3 358.7 152.5 356.9 154.6Z" fill="#CC4E4E"/>
    </svg>

</svg>
